<?xml version="1.0" standalone="no"?>
<!DOCTYPE svg PUBLIC "-//W3C//DTD SVG 20010904//EN"
 "http://www.w3.org/TR/2001/REC-SVG-20010904/DTD/svg10.dtd">
<svg version="1.0" xmlns="http://www.w3.org/2000/svg"
 width="1024.000000pt" height="1024.000000pt" viewBox="0 0 1024.000000 1024.000000"
 preserveAspectRatio="xMidYMid meet">
<metadata>
Created by potrace 1.11, written by Peter Selinger 2001-2013
</metadata>
<g transform="translate(0.000000,1024.000000) scale(0.100000,-0.100000)"
fill="#000000" stroke="none">
<path d="M2018 10233 c12 -2 30 -2 40 0 9 3 -1 5 -23 4 -22 0 -30 -2 -17 -4z"/>
<path d="M1958 10223 c7 -3 16 -2 19 1 4 3 -2 6 -13 5 -11 0 -14 -3 -6 -6z"/>
<path d="M1908 10213 c6 -2 18 -2 25 0 6 3 1 5 -13 5 -14 0 -19 -2 -12 -5z"/>
<path d="M1858 10203 c6 -2 18 -2 25 0 6 3 1 5 -13 5 -14 0 -19 -2 -12 -5z"/>
<path d="M1104 9937 c-77 -41 -248 -160 -275 -193 -7 -8 30 16 82 55 52 39
136 94 187 122 50 28 92 53 92 55 0 6 0 6 -86 -39z"/>
<path d="M5025 9838 c-22 -29 -45 -62 -51 -73 -34 -64 -67 -103 -87 -103 -63
0 -489 -68 -649 -102 -159 -35 -449 -117 -588 -167 -25 -9 -135 -57 -245 -106
-110 -49 -229 -102 -265 -117 -139 -59 -358 -187 -590 -345 -330 -226 -790
-671 -1020 -987 -194 -268 -224 -317 -384 -638 -119 -239 -134 -274 -221 -500
-31 -80 -62 -158 -70 -175 -7 -16 -25 -73 -40 -125 -15 -52 -40 -139 -56 -193
-17 -53 -32 -112 -34 -130 -3 -17 -16 -81 -30 -142 -39 -168 -83 -430 -88
-524 -4 -89 -3 -86 -68 -134 -13 -10 -4 -7 21 6 25 14 115 62 200 107 85 46
189 102 230 125 41 23 83 44 92 48 9 3 85 47 170 98 233 140 618 348 618 333
0 -3 -10 -14 -22 -25 -17 -14 -18 -17 -5 -13 21 7 21 1 3 -34 -8 -15 -16 -38
-17 -52 -2 -14 -7 -27 -10 -30 -3 -3 -16 -33 -28 -67 -13 -34 -34 -76 -47 -94
-13 -18 -24 -39 -24 -46 0 -7 -4 -13 -8 -13 -5 0 -7 -16 -6 -35 2 -19 -1 -35
-6 -35 -6 0 -10 -5 -10 -11 0 -5 4 -8 9 -5 5 3 11 -15 13 -42 5 -52 0 -82 -13
-82 -5 0 -4 11 1 25 6 17 6 26 -3 31 -7 4 -9 4 -5 0 4 -5 3 -19 -3 -32 -7 -19
-5 -26 7 -31 12 -5 13 -7 3 -14 -8 -5 -21 -2 -31 8 -17 15 -18 15 -18 -1 0 -9
4 -15 9 -12 5 3 11 -5 13 -19 4 -20 3 -23 -8 -14 -11 9 -14 8 -14 -1 0 -6 9
-14 20 -17 11 -3 20 -10 20 -15 0 -5 5 -6 10 -3 6 3 10 1 10 -6 0 -15 -39 -49
-58 -49 -8 0 -12 -6 -9 -14 3 -7 1 -18 -4 -23 -7 -7 -5 -16 6 -26 14 -15 19
-15 39 -2 19 13 25 13 42 1 15 -12 17 -18 8 -33 -10 -17 -29 -18 -265 -15
-416 6 -459 5 -579 -1 -63 -4 -175 -10 -248 -13 -127 -6 -132 -7 -126 -26 4
-14 2 -18 -5 -14 -6 4 -11 15 -12 24 0 11 -3 12 -6 5 -6 -16 -43 -17 -43 -1 0
6 -3 8 -6 5 -11 -11 -44 13 -44 32 0 19 31 51 69 71 13 7 20 15 14 19 -5 3 -6
55 -2 126 11 170 9 1602 -2 1767 -9 136 -9 138 -44 184 -19 25 -36 53 -37 62
-2 24 -3 31 -18 94 -11 47 -21 65 -61 102 -57 54 -60 74 -21 134 26 38 48 49
36 18 -3 -8 6 -13 26 -13 21 0 36 -7 47 -24 10 -13 29 -35 43 -49 15 -14 56
-53 92 -87 35 -35 69 -63 74 -63 5 0 16 -18 25 -39 16 -37 15 -41 -7 -96 -13
-32 -32 -64 -43 -71 -19 -13 -19 -32 -20 -506 0 -271 -3 -613 -7 -759 -4 -147
-3 -272 1 -279 11 -18 31 57 55 210 11 69 27 145 35 169 8 25 15 54 15 66 0
21 33 130 51 170 5 11 25 74 44 140 54 181 238 631 325 795 42 80 104 186 136
236 32 50 66 104 75 120 67 117 175 273 256 370 49 58 51 64 23 64 -11 0 -19
3 -19 8 5 29 -4 30 -36 5 -19 -15 -36 -26 -37 -24 -2 2 -13 -1 -25 -7 -13 -7
-24 -8 -28 -3 -3 6 -14 9 -25 8 -10 -1 -17 -4 -14 -8 2 -4 -2 -9 -10 -12 -16
-7 -27 25 -15 44 4 7 3 21 -2 32 -6 10 -10 28 -9 40 4 38 0 49 -13 44 -6 -3
-20 -8 -29 -12 -11 -4 -18 -3 -18 5 0 6 4 8 10 5 6 -3 7 1 4 9 -3 9 -10 13
-15 10 -5 -3 4 18 21 46 16 28 30 53 30 57 0 5 57 81 70 93 3 3 20 23 39 45
73 85 150 163 226 225 82 67 119 103 145 140 8 12 34 33 57 48 23 14 39 31 35
36 -17 29 -6 48 47 83 31 20 66 47 79 61 12 13 105 64 206 113 198 95 473 193
771 274 155 41 196 51 410 95 55 11 128 27 162 35 34 8 183 33 330 55 147 22
282 44 298 49 30 10 -1610 9 -1805 0 -259 -13 -639 -113 -864 -226 -189 -95
-354 -220 -498 -375 -173 -188 -250 -304 -311 -473 -14 -38 -37 -97 -52 -130
-45 -99 -84 -258 -106 -425 -16 -118 -15 -137 10 -170 11 -16 21 -35 21 -42 0
-7 9 -31 20 -53 12 -22 15 -33 8 -24 -7 8 -46 44 -87 79 l-74 63 7 86 c18 254
124 596 278 896 22 43 42 97 45 119 2 22 7 45 11 51 3 5 -1 4 -10 -2 -8 -7
-17 -10 -21 -7 -3 3 -13 -6 -23 -20 -34 -53 -24 -9 22 91 16 36 11 59 -17 66
-19 5 -27 27 -10 27 20 0 -3 36 -35 57 -19 13 -32 17 -29 10 4 -6 -1 -3 -10 8
-9 11 -20 19 -25 18 -5 -2 -21 2 -36 8 -26 9 -31 6 -81 -48 -30 -32 -81 -101
-113 -153 -56 -91 -70 -119 -135 -270 -15 -36 -36 -77 -47 -92 -11 -15 -23
-49 -27 -75 -5 -27 -22 -100 -38 -163 -17 -63 -35 -142 -41 -175 -23 -122 -51
-416 -57 -595 -3 -102 -8 -198 -10 -215 -3 -16 -5 -859 -5 -1873 1 -1304 -3
-1842 -10 -1837 -8 5 -10 601 -9 2015 1 1105 -2 2013 -5 2019 -4 6 -4 11 0 11
3 0 1 6 -5 14 -9 10 -11 63 -7 188 6 204 18 290 57 416 16 50 43 135 60 189
16 53 31 109 32 125 1 15 5 28 9 28 5 0 7 3 6 8 -1 4 6 24 15 46 9 21 17 45
17 53 0 8 9 27 19 42 10 14 24 45 30 69 26 95 109 232 263 436 12 16 17 26 10
22 -22 -13 -117 -139 -172 -226 -29 -47 -64 -96 -76 -110 -55 -60 -175 -357
-229 -564 -52 -198 -66 -295 -73 -481 -10 -301 -13 -5884 -3 -5965 15 -119 49
-350 61 -410 16 -84 138 -450 165 -495 13 -22 50 -87 83 -145 94 -167 132
-223 222 -324 103 -117 175 -182 355 -320 149 -115 344 -222 556 -307 224 -89
288 -104 577 -139 160 -20 223 -20 3115 -17 3031 4 3046 4 3242 43 225 44 503
133 660 211 139 70 511 328 562 391 7 8 41 45 75 81 120 126 200 242 295 429
40 79 73 149 73 156 0 6 -28 -45 -63 -114 -34 -69 -82 -152 -105 -185 -24 -33
-61 -87 -84 -120 -48 -70 -108 -136 -119 -130 -4 3 -19 -11 -33 -30 -20 -25
-34 -34 -52 -33 -50 4 -45 21 44 154 115 173 129 199 112 219 -12 14 -16 13
-40 -10 -28 -27 -45 -33 -35 -12 4 6 -1 3 -9 -7 -11 -14 -13 -22 -5 -27 8 -5
8 -9 -1 -14 -7 -4 -15 -3 -19 2 -3 5 -21 16 -39 25 -18 8 -33 18 -33 22 5 46
-12 64 -22 24 -5 -18 -8 -19 -21 -9 -9 7 -22 11 -29 8 -8 -3 -20 -1 -28 3 -9
6 -21 2 -37 -13 l-23 -21 -5 22 c-5 18 -9 20 -27 11 -17 -10 -19 -9 -12 7 12
32 25 78 22 81 -4 3 -126 -95 -189 -153 -26 -24 -77 -64 -115 -89 -37 -24 -97
-66 -133 -92 -81 -58 -312 -173 -405 -201 -327 -97 -456 -121 -710 -129 -110
-3 -206 -10 -212 -16 -9 -6 -13 -6 -13 1 0 12 -1841 9 -2172 -3 -164 -6 -178
-5 -178 10 0 18 60 128 162 295 31 52 67 114 78 137 19 37 28 44 75 57 29 9
61 16 72 16 78 1 544 141 752 227 187 77 477 226 591 303 30 21 105 67 166
103 159 94 289 195 578 450 l54 48 39 -25 c21 -14 43 -30 50 -35 9 -9 89 -18
193 -25 13 0 25 4 26 9 0 6 4 18 9 28 4 10 5 31 2 47 -4 17 -2 32 5 36 13 8
-28 29 -50 25 -6 -1 -27 9 -45 22 -17 13 -51 29 -74 36 -42 12 -61 27 -49 39
4 3 21 1 38 -6 23 -8 34 -9 39 -1 4 8 10 5 18 -7 10 -18 10 -18 11 3 0 15 -17
36 -52 64 -29 23 -116 101 -193 174 -77 73 -203 188 -280 257 -78 69 -179 167
-226 218 -60 65 -93 93 -110 94 -19 1 -25 7 -27 31 -2 17 -8 35 -13 41 -5 6
-6 19 -3 28 4 10 -14 -1 -39 -24 -25 -23 -76 -66 -113 -96 -61 -48 -99 -73
-240 -156 -18 -10 -60 -41 -95 -69 -57 -46 -221 -133 -289 -154 -14 -4 -50
-20 -80 -35 -30 -15 -93 -40 -140 -55 -47 -15 -116 -38 -155 -50 -113 -38
-212 -58 -231 -47 -10 6 -27 6 -38 2 -25 -10 -233 -36 -396 -49 -237 -19 -532
4 -710 56 -95 28 -205 53 -235 53 -60 0 -165 46 -581 251 -74 37 -292 204
-389 298 -86 84 -98 89 -122 52 -10 -16 -67 -66 -128 -112 -60 -45 -153 -120
-205 -165 -53 -45 -141 -117 -196 -161 -55 -44 -129 -107 -165 -140 -112 -104
-208 -182 -274 -225 -36 -23 -65 -45 -65 -50 0 -13 33 -9 55 6 35 24 572 183
635 188 19 1 44 8 55 15 18 11 205 53 236 53 30 0 -10 -20 -71 -35 -36 -9 -81
-20 -101 -25 -19 -5 -55 -12 -78 -15 -23 -3 -99 -25 -169 -49 -128 -44 -224
-72 -407 -121 -55 -15 -119 -36 -142 -46 -24 -10 -54 -19 -69 -19 -22 0 -24 3
-18 23 3 12 17 40 29 62 26 45 41 86 160 420 99 276 126 348 163 425 22 46 27
51 30 32 2 -13 -4 -47 -13 -75 -10 -29 -18 -62 -20 -75 -1 -13 -12 -32 -24
-43 -22 -20 -30 -89 -11 -89 6 0 10 4 10 10 0 5 10 18 21 29 18 16 33 20 78
17 31 -1 67 3 81 10 63 31 160 63 213 69 l57 7 0 -31 c0 -38 6 -39 50 -3 19
16 60 45 90 65 59 39 140 117 140 136 0 6 -16 28 -35 48 -19 20 -35 41 -35 47
0 5 -15 27 -33 50 -48 59 -83 111 -70 103 7 -4 5 5 -3 23 -9 16 -19 32 -25 35
-5 4 -9 16 -9 28 -1 44 -67 96 -85 67 -3 -5 -11 -10 -17 -10 -6 0 -6 6 2 15
11 13 9 20 -9 38 -11 13 -21 33 -21 44 0 11 -7 26 -15 33 -8 7 -27 34 -42 61
-14 27 -30 49 -35 49 -4 0 -8 6 -8 13 0 8 -13 41 -30 75 -16 34 -30 65 -30 69
0 4 -18 51 -40 104 -26 63 -40 113 -40 142 0 31 -8 55 -27 83 -40 59 -66 124
-69 174 -2 25 -8 88 -14 140 -5 52 -13 124 -16 160 -5 44 -16 81 -35 116 -32
57 -36 81 -15 109 13 18 16 18 33 5 28 -23 61 -40 78 -40 11 0 15 12 16 48 1
29 4 37 7 22 4 -23 5 -23 12 -5 4 11 2 34 -3 52 -11 35 -2 57 13 33 7 -10 8 2
3 34 -4 36 -3 47 5 42 7 -4 12 -32 12 -67 0 -33 4 -59 10 -59 6 0 10 5 10 11
0 5 4 8 9 5 9 -6 14 -45 31 -226 15 -163 126 -597 185 -725 18 -39 35 -81 40
-93 18 -58 191 -382 214 -402 3 -3 40 -50 81 -105 137 -182 353 -411 470 -497
74 -54 217 -148 225 -148 2 0 30 -15 62 -34 72 -42 296 -134 414 -170 142 -43
394 -96 550 -116 126 -16 175 -17 350 -10 201 9 428 31 498 50 20 5 50 12 66
16 17 4 32 8 35 9 102 24 226 73 384 151 82 41 157 74 165 74 24 -1 -75 -85
-117 -100 -21 -7 -44 -18 -52 -25 -19 -17 -132 -69 -189 -88 -30 -10 -38 -16
-27 -20 9 -4 23 -4 31 -1 8 4 15 1 15 -6 0 -8 -11 -11 -29 -8 -17 2 -28 1 -25
-4 3 -4 -16 -13 -41 -19 -25 -6 -48 -15 -51 -20 -3 -5 -3 -9 -1 -9 28 0 320
111 434 165 28 14 56 25 61 25 5 0 32 15 58 33 27 19 67 40 89 48 58 20 180
100 271 179 28 25 63 54 76 65 158 130 247 212 292 271 17 23 67 83 110 135
43 52 95 118 115 148 74 110 91 136 97 151 30 75 42 101 65 140 27 45 129 281
129 299 0 5 6 14 14 20 17 14 49 127 41 142 -4 5 -2 15 3 22 5 7 13 32 16 57
3 25 13 70 21 100 8 30 18 71 21 90 3 19 8 42 11 50 4 8 5 41 4 74 -2 40 1 56
8 52 6 -4 11 -2 11 3 0 6 -5 11 -10 11 -7 0 -8 27 -4 78 13 160 5 352 -17 378
-10 12 -9 21 4 43 8 14 17 44 19 66 3 35 -1 41 -42 72 -48 37 -103 128 -115
190 -7 38 5 59 27 51 7 -3 16 -6 20 -7 11 -3 88 -82 88 -91 0 -9 34 -40 44
-40 4 0 -4 14 -18 31 -14 17 -26 35 -26 40 0 9 22 13 50 9 10 -1 6 8 -11 27
-15 15 -55 71 -90 123 -34 52 -86 127 -116 166 -29 40 -53 77 -53 83 0 6 -18
48 -40 95 -22 46 -40 89 -40 94 0 6 -18 32 -40 57 -22 25 -43 58 -46 73 -4 15
-14 36 -23 46 -9 11 -10 16 -3 12 6 -4 12 -4 12 -1 0 7 -39 66 -50 75 -8 7
-91 116 -126 166 -54 76 -117 159 -162 209 -64 73 -258 241 -322 279 -30 18
-95 62 -145 99 -104 77 -426 241 -550 280 -320 102 -499 129 -837 128 -191 0
-230 2 -243 15 -13 14 -15 14 -15 0 0 -9 -11 -23 -25 -32 -20 -13 -33 -14 -63
-7 -25 7 -56 6 -97 -3 -33 -7 -103 -20 -155 -29 -145 -26 -233 -51 -312 -89
-40 -19 -93 -40 -118 -47 -44 -13 -63 -26 -55 -40 3 -3 -34 -21 -81 -39 -84
-33 -276 -142 -324 -185 -14 -12 -47 -37 -75 -55 -27 -19 -72 -57 -101 -84
-28 -28 -78 -69 -110 -92 -131 -90 -480 -518 -572 -701 -56 -111 -139 -319
-180 -448 -86 -276 -110 -365 -122 -460 -5 -38 -14 -83 -20 -100 -6 -16 -10
-45 -9 -65 1 -19 -1 -45 -5 -58 -7 -21 -10 -22 -24 -9 -34 28 -52 28 -64 -1
-6 -16 -12 -22 -15 -14 -3 7 2 23 11 36 10 16 15 44 13 84 -1 48 3 65 18 82
16 18 20 38 21 99 1 45 8 94 18 121 10 25 22 65 26 90 9 45 77 251 145 435 33
92 50 127 122 255 14 25 34 61 44 80 10 19 41 67 69 105 28 39 66 93 85 121
18 28 61 79 94 115 34 35 61 68 61 72 0 11 83 118 105 137 15 12 14 16 -10 39
-14 14 -36 42 -48 61 -12 19 -32 39 -43 45 -11 5 -69 60 -130 120 -60 61 -87
90 -60 65 81 -73 34 -19 -183 210 -198 209 -267 288 -362 414 -56 76 -103 116
-135 116 -31 0 -32 29 -3 56 20 18 22 18 122 -16 56 -19 163 -60 237 -91 74
-31 185 -75 246 -97 129 -47 255 -100 404 -170 l106 -50 2 -39 c2 -22 -4 -98
-12 -169 -22 -192 -30 -349 -19 -369 9 -15 18 -9 79 42 38 33 89 71 114 86 25
15 81 53 125 83 44 31 122 76 173 101 51 25 92 50 92 58 0 21 35 37 64 29 16
-4 31 -1 40 7 41 38 85 58 249 117 59 21 104 41 101 45 -7 7 105 61 120 58 4
-1 24 3 42 9 36 12 48 36 14 27 -13 -3 -20 0 -20 10 0 8 5 11 12 7 8 -5 9 -2
5 9 -10 27 7 20 25 -10 10 -16 18 -23 18 -16 0 6 -4 15 -10 18 -5 3 -10 15
-10 26 0 20 -44 44 -61 34 -5 -4 -6 2 -3 12 5 17 5 17 -9 1 -13 -16 -14 -15
-13 12 1 24 5 30 21 28 11 -2 23 -10 27 -18 4 -9 7 -3 7 17 1 26 -2 31 -16 27
-15 -5 -15 -4 -3 4 8 6 18 8 22 6 4 -3 8 0 8 6 0 6 4 9 9 5 5 -3 12 -1 16 4 3
6 12 8 20 4 9 -3 15 1 15 9 0 15 33 37 60 42 8 1 30 10 47 19 18 10 35 17 38
17 48 -2 55 1 55 23 1 21 1 21 14 4 9 -12 16 -14 21 -8 3 6 1 11 -4 11 -6 0
-11 4 -11 8 0 5 26 13 58 19 l57 10 -60 1 c-56 2 -160 -12 -300 -38 -33 -7
-82 -16 -108 -20 -26 -5 -57 -12 -67 -15 -13 -4 -22 -1 -26 10 -9 21 5 33 16
15 8 -13 10 -12 10 3 0 26 53 45 215 78 76 16 152 33 169 39 43 15 143 13 158
-4 11 -11 19 -10 55 7 39 19 43 19 67 3 14 -9 26 -23 26 -31 0 -8 7 -15 15
-15 9 0 12 6 9 15 -4 8 -1 22 7 31 10 12 29 14 108 9 164 -11 541 -83 712
-135 53 -17 110 -30 126 -30 17 0 36 -6 42 -14 6 -7 33 -21 59 -31 161 -58
281 -118 435 -217 l58 -37 44 25 c51 28 344 126 555 185 223 62 481 139 520
153 37 14 67 9 88 -16 13 -16 -5 -100 -48 -223 -21 -60 -195 -628 -232 -760
-30 -104 -46 -185 -37 -190 23 -15 130 -173 192 -283 82 -146 129 -253 182
-407 21 -60 52 -148 71 -195 18 -47 53 -159 77 -250 38 -139 46 -185 51 -291
5 -125 5 -126 -19 -147 -14 -12 -25 -32 -25 -44 0 -31 41 -148 79 -228 29 -62
31 -71 31 -190 0 -200 -48 -515 -101 -668 -17 -48 -37 -107 -44 -132 -21 -75
-94 -250 -127 -309 -125 -220 -234 -388 -260 -399 -14 -6 -9 -106 8 -162 9
-30 63 -176 121 -325 134 -345 155 -401 211 -565 29 -84 48 -126 50 -112 2 12
-4 45 -13 72 -30 89 -27 96 77 222 81 99 112 141 200 269 21 31 49 61 61 68
13 7 28 31 37 58 14 43 19 48 68 64 29 10 70 32 91 48 34 27 39 29 53 15 14
-14 13 -20 -9 -60 -26 -46 -108 -104 -147 -104 -11 0 -16 -3 -13 -7 6 -5 -32
-64 -52 -83 -4 -3 -14 -22 -24 -43 -21 -46 -10 -79 24 -70 14 4 20 2 16 -4 -4
-6 0 -16 8 -23 10 -8 13 -26 10 -56 -2 -29 2 -49 10 -58 8 -7 11 -16 8 -20 -6
-5 20 -10 40 -7 15 2 6 -27 -18 -63 -14 -21 -21 -35 -16 -32 5 3 7 -3 4 -13
-3 -13 -10 -18 -21 -14 -11 5 -13 3 -7 -8 4 -8 4 -11 0 -6 -11 10 -13 57 -2
57 4 0 5 6 0 13 -4 6 -6 20 -5 29 2 10 -11 26 -32 40 -28 18 -34 28 -32 54 1
17 8 40 16 49 14 17 13 18 -22 12 -36 -5 -62 6 -36 16 7 2 10 8 5 12 -8 9 -27
-13 -49 -55 -7 -14 -19 -31 -26 -38 -7 -8 -10 -18 -7 -23 4 -5 1 -9 -4 -9 -6
0 -11 -6 -11 -12 1 -7 9 -3 20 10 23 28 85 41 76 15 -4 -9 1 -22 11 -30 10 -8
11 -11 3 -7 -12 6 -13 5 -3 -7 7 -9 11 -46 10 -96 -1 -45 -5 -75 -8 -66 -4 13
-7 14 -13 4 -5 -7 -6 -15 -3 -17 3 -3 -1 -25 -8 -48 -13 -42 -13 -44 7 -38 24
6 24 6 -36 -82 -54 -79 -69 -93 -103 -100 -57 -13 -132 -64 -148 -102 -19 -47
-19 -58 2 -50 9 4 20 1 24 -6 4 -6 25 -12 46 -13 30 -1 37 -5 35 -18 -2 -9 2
-17 8 -17 6 0 15 -11 20 -25 24 -62 72 -35 72 41 0 50 -20 78 -48 67 -33 -12
-10 17 31 42 25 14 64 49 86 78 44 56 130 156 165 192 12 12 37 44 56 71 18
27 53 77 77 111 24 35 49 63 56 63 7 0 18 14 25 31 7 17 48 78 92 136 79 105
148 223 148 251 0 9 3 12 7 9 9 -9 73 122 73 149 0 12 11 38 25 59 91 134 276
601 370 935 46 163 133 515 139 560 4 25 9 63 12 85 3 22 11 67 19 100 7 33
19 85 25 115 7 36 21 68 40 90 17 19 30 38 30 42 0 4 27 26 60 50 91 64 83 97
-47 182 -46 30 -48 34 -54 86 -3 30 -4 101 -2 157 3 86 1 109 -16 150 -20 47
-51 156 -51 179 0 7 12 26 26 43 34 41 92 43 147 6 65 -45 36 22 -38 87 l-48
42 -37 -44 c-23 -27 -39 -39 -44 -32 -9 15 29 88 50 96 15 6 16 17 11 84 -4
42 -7 387 -7 766 -1 795 -8 913 -71 1236 -11 58 -30 137 -41 175 -48 165 -216
512 -306 634 -129 172 -291 325 -465 438 -89 58 -270 144 -377 178 -47 16
-100 34 -119 42 -43 18 -248 47 -436 62 -94 7 -552 11 -1389 11 -1095 0 -1252
2 -1266 15 -42 38 -33 6 20 -75 54 -82 319 -538 385 -665 32 -60 99 -177 150
-260 50 -82 107 -177 125 -210 19 -33 80 -129 137 -213 57 -85 103 -158 103
-163 0 -5 -25 2 -56 16 -31 14 -64 25 -73 25 -15 0 -67 30 -127 75 -23 17
-298 80 -439 101 -54 8 -67 9 -135 13 -37 2 -41 4 -20 10 24 7 24 8 -12 20
-40 13 -63 8 -51 -12 18 -29 11 -37 -32 -37 -59 0 -91 14 -98 42 -17 66 -37
365 -41 607 -3 198 -8 276 -17 281 -14 9 -14 77 1 176 5 38 10 134 11 214 2
165 7 198 32 214 14 9 20 8 27 -5 5 -9 19 -27 30 -40 l21 -24 -15 30 c-43 84
-75 87 -131 13z m985 -422 c0 -2 -7 -9 -15 -16 -13 -11 -14 -10 -9 4 5 14 24
23 24 12z m44 -18 c-5 -7 10 -12 29 -9 4 0 7 -3 7 -9 0 -5 6 -8 13 -6 6 1 8 1
3 -2 -4 -2 -2 -8 5 -13 10 -6 7 -8 -8 -6 -12 0 -19 5 -16 11 4 5 -1 7 -11 3
-11 -5 -15 -3 -10 5 5 7 0 9 -14 6 -16 -4 -19 -2 -15 10 4 10 2 13 -5 8 -7 -4
-12 -3 -12 3 0 5 9 9 19 8 11 0 17 -5 15 -9z m-84 -33 c-14 -8 -29 -14 -35
-14 -5 0 1 6 15 14 14 8 30 14 35 14 6 0 -1 -6 -15 -14z m795 -16 c248 -1 461
-5 475 -9 40 -12 -180 -18 -425 -11 -121 3 -308 6 -416 6 -136 0 -192 3 -185
10 5 6 30 10 55 8 25 -1 249 -3 496 -4z m1417 -124 c34 -14 67 -25 75 -25 7 0
13 -5 13 -12 0 -6 3 -8 6 -5 10 9 46 -12 39 -23 -3 -6 1 -7 9 -4 10 4 16 1 16
-10 0 -13 -6 -12 -47 6 -27 11 -88 38 -138 59 -64 28 -82 38 -62 39 15 0 55
-11 89 -25z m-3624 -7 c-3 -7 -58 -27 -124 -44 -65 -17 -130 -36 -144 -41 -14
-6 -38 -13 -55 -17 l-30 -7 35 22 c34 22 267 97 303 98 11 1 17 -4 15 -11z
m3192 -86 c229 -41 501 -147 670 -262 223 -151 468 -456 570 -709 126 -309
156 -468 171 -896 12 -325 6 -1570 -7 -1602 -9 -20 -12 -19 -94 36 l-85 57 1
84 c6 391 2 1442 -6 1550 -16 206 -56 443 -81 476 -5 6 -22 53 -39 105 -46
140 -146 319 -253 454 -154 193 -419 382 -639 456 -192 65 -153 63 -1267 66
-696 3 -1019 7 -1028 14 -16 14 -103 173 -103 189 0 8 260 10 1033 7 1014 -3
1034 -3 1157 -25z m-3634 -59 c-16 -8 -60 -26 -98 -39 -241 -82 -708 -317
-953 -479 -134 -89 -381 -267 -474 -341 -43 -34 -71 -40 -78 -18 -7 21 85 97
257 214 93 63 215 147 272 186 163 112 645 355 813 410 39 12 97 32 130 44 52
19 120 36 150 39 6 0 -3 -7 -19 -16z m424 -47 c0 -2 -17 -33 -38 -67 -21 -35
-49 -84 -63 -108 -26 -47 -72 -75 -224 -136 -346 -140 -589 -262 -913 -459
-120 -73 -302 -200 -343 -241 -20 -19 -34 -19 -94 4 -106 39 -136 54 -132 65
12 38 457 361 587 426 36 18 92 50 125 71 192 121 820 386 980 413 22 4 51 14
65 21 24 14 50 19 50 11z m89 -50 c-12 -20 -24 -35 -26 -32 -3 3 5 21 17 41
29 47 37 39 9 -9z m-2745 -42 c9 -3 16 -11 16 -17 0 -6 -3 -8 -6 -4 -3 3 -13
0 -20 -6 -8 -7 -20 -16 -27 -22 -17 -14 -47 -18 -47 -6 0 8 56 61 65 61 2 0
10 -3 19 -6z m6819 -48 c20 -16 37 -35 37 -42 0 -9 -13 -3 -34 16 -18 17 -42
37 -52 45 -14 10 -15 13 -4 12 9 -2 32 -15 53 -31z m157 -150 c13 -20 13 -20
-5 -6 -45 35 -75 64 -75 73 0 11 60 -39 80 -67z m-2070 -46 c7 -5 11 -19 8
-34 -3 -15 -1 -29 3 -32 5 -3 9 2 9 11 0 9 5 13 10 10 6 -3 10 1 10 9 0 9 -6
16 -12 16 -7 0 -5 5 5 11 11 6 151 11 375 12 381 1 475 -7 616 -54 167 -57
356 -169 455 -271 110 -114 241 -305 241 -351 0 -17 -5 -19 -184 -68 -141 -39
-158 -52 -144 -111 12 -54 17 -61 34 -47 12 10 13 9 8 -6 -5 -13 -4 -16 4 -11
7 4 15 0 18 -9 6 -14 10 -13 40 4 23 14 34 16 38 8 3 -7 3 -2 1 10 -8 31 17
41 111 47 22 1 54 12 71 24 17 12 34 18 38 14 5 -4 5 -2 1 5 -3 6 -2 14 3 18
16 9 67 -112 101 -234 16 -61 30 -116 30 -123 0 -7 -24 -9 -80 -5 -49 3 -82 1
-86 -5 -4 -6 -10 -5 -15 3 -6 10 -9 11 -9 2 0 -7 -5 -13 -11 -13 -5 0 -8 4 -4
9 3 5 1 13 -5 16 -6 4 -9 1 -8 -5 4 -15 -29 -22 -38 -9 -3 5 -13 5 -24 -1 -10
-6 -21 -7 -23 -3 -3 5 -45 6 -94 3 -137 -8 -160 -4 -166 28 -3 15 -4 99 -1
187 7 267 12 326 28 344 10 11 12 22 6 31 -5 7 -7 36 -5 62 3 30 1 46 -5 43
-6 -4 -10 10 -10 32 -1 21 -2 69 -3 106 -2 38 1 71 6 74 4 3 1 13 -7 22 -14
15 -50 16 -396 14 -311 -3 -386 -6 -408 -18 -24 -13 -5 -14 193 -15 177 0 435
-5 536 -11 16 0 17 -44 20 -487 2 -268 4 -672 3 -898 0 -361 -2 -414 -16 -427
-9 -9 -19 -13 -23 -9 -5 4 -5 1 -1 -6 6 -9 11 -10 20 -3 10 8 13 0 13 -37 0
-26 -2 -41 -4 -34 -4 10 -8 10 -21 0 -10 -9 -13 -9 -9 -1 4 6 -1 26 -12 44
-11 17 -17 37 -14 45 2 7 -1 22 -7 34 -10 18 -14 19 -28 8 -13 -11 -15 -11 -9
4 7 20 -8 34 -19 17 -5 -9 -15 -3 -32 17 -13 16 -21 23 -17 15 6 -10 4 -12 -4
-6 -7 4 -11 16 -8 26 3 11 2 17 -3 14 -14 -9 -29 21 -25 47 4 20 1 25 -13 24
-11 -1 -16 5 -14 18 2 10 -1 16 -5 13 -5 -3 -10 4 -11 16 -7 52 -9 73 -10 95
-1 12 -6 22 -11 22 -5 0 -7 -10 -3 -22 5 -21 4 -22 -12 -9 -15 13 -15 15 -1
31 15 17 14 18 -12 16 -26 -2 -29 1 -27 28 2 29 40 70 56 60 4 -3 8 2 8 11 0
11 -5 15 -15 12 -8 -4 -17 -2 -20 3 -4 6 1 10 9 10 15 0 15 27 0 52 -4 7 -3 8
4 4 13 -8 17 6 5 18 -12 11 -12 36 -1 43 7 3 8 1 4 -5 -5 -8 0 -12 13 -12 24
0 36 16 20 26 -8 4 -9 3 -5 -4 4 -7 2 -12 -3 -12 -6 0 -11 2 -11 4 0 2 -3 12
-7 22 -5 13 -3 15 7 9 9 -6 11 -4 6 4 -5 7 -13 10 -20 8 -7 -3 -13 4 -13 14
-2 17 11 24 42 20 6 0 16 9 23 20 8 12 9 18 3 15 -5 -4 -12 -2 -15 3 -3 5 1
12 10 15 8 3 12 11 8 17 -4 7 -3 9 2 6 5 -3 21 3 34 14 21 16 23 20 10 29 -12
8 -9 10 14 10 46 0 25 9 -34 15 -59 6 -65 9 -55 24 4 7 46 11 105 11 103 0
115 5 99 45 -4 11 -8 14 -8 7 -1 -9 -18 -12 -61 -11 -51 2 -57 4 -42 15 13 9
19 9 24 1 12 -18 9 2 -2 24 -9 15 -7 19 6 19 13 0 14 3 5 14 -9 11 -9 15 1 20
10 5 10 7 1 12 -10 4 -10 9 1 20 20 20 31 18 15 -3 -13 -15 -12 -15 9 -2 12 8
18 15 12 17 -6 2 -7 9 -3 15 4 6 0 8 -9 4 -11 -4 -15 -1 -13 11 2 9 4 20 4 25
1 4 8 7 16 7 8 0 14 5 13 11 -2 6 3 14 10 16 9 4 10 -1 2 -21 -6 -17 -6 -26 0
-26 6 0 9 -25 7 -59 -2 -32 0 -67 4 -77 7 -18 11 102 10 345 0 57 -2 106 -5
109 -3 3 -6 -29 -6 -71 0 -80 -11 -101 -38 -73 -13 12 -13 18 -4 28 15 15 16
28 1 28 -5 0 -7 -5 -3 -12 4 -7 3 -8 -4 -4 -13 8 -10 30 12 115 17 60 12 102
-13 125 -19 17 -114 24 -133 9 -7 -6 -40 -16 -73 -23 -33 -6 -82 -18 -109 -26
-27 -8 -51 -12 -54 -10 -6 7 32 25 62 29 16 2 35 15 46 33 11 16 20 25 21 19
0 -5 5 3 9 19 7 23 5 33 -17 55 -18 18 -24 21 -19 8 3 -10 2 -15 -3 -12 -5 3
-12 1 -16 -5 -3 -5 -11 -10 -18 -10 -6 0 -4 6 5 13 8 6 28 35 43 62 16 28 33
53 38 56 5 4 5 9 0 12 -14 9 -27 -4 -57 -58 -16 -27 -36 -58 -44 -67 -11 -13
-12 -21 -4 -31 9 -11 7 -13 -8 -12 -11 1 -23 5 -27 10 -5 4 -2 5 6 0 9 -5 12
-4 7 3 -4 6 -13 9 -22 5 -12 -4 -12 -8 -2 -21 11 -13 10 -14 -9 -4 -14 8 -24
9 -28 2 -3 -5 -11 -10 -16 -10 -6 0 -8 3 -6 8 3 4 -5 7 -18 7 -21 0 -22 -2 -9
-17 12 -12 12 -18 3 -24 -8 -4 -10 -3 -5 4 4 7 3 12 -3 12 -5 0 -13 -4 -16
-10 -3 -5 -12 -10 -18 -9 -8 0 -8 2 1 6 10 4 7 9 -8 20 -19 14 -23 13 -43 -4
-30 -27 -52 -34 -67 -20 -10 9 -11 9 -6 0 3 -6 0 -13 -6 -16 -18 -6 -39 3 -32
14 3 5 -2 6 -10 3 -9 -3 -16 -12 -16 -20 0 -8 -7 -14 -16 -14 -9 0 -12 5 -8
12 4 7 3 8 -4 4 -7 -4 -12 -2 -12 3 0 6 -5 11 -10 11 -7 0 -7 -6 0 -19 14 -28
13 -29 -20 -27 -22 2 -32 -3 -36 -17 -3 -10 -11 -16 -17 -14 -36 15 -51 18
-38 9 8 -6 9 -12 3 -16 -6 -3 -14 -1 -18 5 -4 7 -12 -1 -20 -20 -13 -30 -30
-36 -47 -16 -5 6 -7 1 -4 -11 2 -12 -1 -21 -8 -21 -7 0 -11 6 -8 13 2 6 -1 15
-8 20 -7 4 -10 3 -6 -4 9 -13 -2 -42 -15 -42 -5 0 -6 6 -3 13 4 6 -2 2 -12
-10 -12 -16 -25 -21 -43 -18 -13 3 -28 -1 -32 -8 -6 -9 -8 -9 -8 2 0 10 -3 11
-13 2 -11 -8 -18 -6 -33 10 -10 12 -18 23 -16 25 1 2 1 25 1 52 -1 26 -3 39
-6 30 -2 -9 -10 -15 -18 -12 -15 6 -8 44 8 41 6 -1 13 7 15 18 4 17 0 16 -22
-8 -28 -30 -34 -56 -13 -58 10 0 10 -2 0 -6 -8 -3 -13 -23 -13 -51 0 -26 -3
-70 -6 -98 -6 -47 -9 -53 -38 -61 -17 -5 -30 -15 -28 -22 3 -16 -36 -5 -60 16
-14 12 -15 20 -7 37 10 20 9 20 -8 -2 l-18 -22 -35 23 c-49 33 -160 89 -255
128 -89 37 -153 89 -208 172 -96 145 -138 217 -134 224 3 5 22 8 42 8 22 -1
34 3 32 9 -3 6 -10 10 -16 9 -6 -2 -11 2 -11 7 0 6 -5 10 -11 10 -5 0 -8 -4
-5 -9 6 -9 -2 -9 -41 4 -14 5 -44 45 -83 111 -33 57 -60 106 -60 109 0 9 945
4 960 -5z m2292 -247 c20 -32 38 -67 42 -79 3 -11 22 -38 41 -60 19 -21 35
-45 35 -52 0 -7 5 -10 12 -6 7 4 8 3 4 -4 -4 -6 -2 -21 4 -31 6 -11 12 -33 14
-48 9 -56 18 -90 52 -197 47 -147 56 -189 60 -271 1 -38 8 -92 14 -120 6 -27
10 -79 9 -115 -1 -36 -1 -283 0 -550 4 -927 3 -950 -16 -950 -15 0 -16 2 -3
10 9 6 10 10 3 10 -20 0 -22 80 -27 795 -5 836 -6 850 -98 1250 -11 50 -21
111 -22 138 -1 42 -6 52 -44 86 -23 21 -42 48 -42 58 0 11 -18 53 -40 93 -35
64 -48 100 -36 100 2 0 19 -26 38 -57z m-3779 -120 c-7 -2 -19 -2 -25 0 -7 3
-2 5 12 5 14 0 19 -2 13 -5z m87 -13 c10 -6 2 -7 -25 -3 -49 7 -58 13 -19 13
16 0 36 -5 44 -10z m2055 -110 c-3 -5 -11 -10 -16 -10 -6 0 -7 5 -4 10 3 6 11
10 16 10 6 0 7 -4 4 -10z m-3725 -72 c-1 -18 -1 -35 0 -38 2 -3 4 -26 5 -53 2
-51 -11 -58 -32 -16 -7 13 -18 24 -25 24 -22 1 -56 -45 -51 -69 4 -20 3 -20
-10 -4 -15 19 -51 19 -101 -1 -16 -7 -36 -9 -43 -7 -8 3 -11 1 -8 -4 4 -6 -7
-10 -24 -10 -16 0 -32 4 -36 9 -5 9 103 81 123 81 6 0 12 5 14 11 3 8 165 103
186 108 2 1 3 -14 2 -31z m-1326 -195 c20 -45 36 -87 36 -94 0 -7 11 -32 25
-55 14 -24 34 -76 45 -116 10 -40 26 -98 35 -128 9 -30 18 -66 21 -80 16 -82
24 -134 20 -137 -11 -11 -36 14 -49 50 -22 60 -109 340 -153 492 -21 72 -46
146 -56 165 -27 51 -22 59 11 20 17 -19 46 -72 65 -117z m2056 139 c0 -10
-140 -56 -147 -48 -4 3 -1 6 6 6 7 0 27 6 44 14 94 40 97 41 97 28z m2414
-115 c-14 -8 -14 -11 -3 -19 12 -8 12 -9 0 -6 -15 4 -33 52 -23 62 3 3 14 -2
24 -11 17 -15 17 -18 2 -26z m1650 21 c-3 -4 -9 -8 -15 -8 -5 0 -9 4 -9 8 0 5
7 9 15 9 8 0 12 -4 9 -9z m-6234 -24 c9 -23 3 -33 -79 -122 -119 -129 -192
-221 -247 -312 -25 -41 -69 -108 -99 -148 -156 -210 -416 -690 -525 -967 -23
-60 -52 -118 -64 -128 -74 -61 -69 -51 -61 -127 4 -42 3 -75 -3 -83 -21 -27
-94 -280 -111 -387 -10 -62 -32 -100 -58 -100 -16 0 -17 34 -2 62 6 12 13 48
15 82 5 68 11 93 60 249 22 72 34 129 34 167 0 70 15 108 46 116 18 5 32 30
70 127 51 132 125 301 181 412 116 231 181 348 203 365 11 9 90 131 90 139 0
14 182 282 245 361 54 68 153 185 229 268 16 17 35 32 43 32 7 0 13 5 13 10 0
18 10 10 20 -16z m1286 -6 c4 -7 3 -8 -5 -4 -6 4 -14 0 -17 -8 -3 -9 -10 -13
-16 -10 -5 3 -1 12 9 20 22 17 20 16 29 2z m4969 3 c3 -5 1 -12 -4 -15 -5 -3
-11 1 -15 9 -6 16 9 21 19 6z m-41 -13 c-3 -4 1 -8 8 -8 9 0 9 -3 -2 -10 -9
-6 -11 -10 -3 -10 7 0 11 -6 9 -12 -1 -7 -1 -10 1 -5 3 4 9 7 14 7 16 0 10
-15 -12 -28 -22 -14 -66 -26 -55 -15 3 3 0 13 -6 22 -9 11 -6 10 9 -2 21 -18
21 -18 28 3 5 15 1 28 -14 44 l-21 22 24 0 c14 0 22 -4 20 -8z m-69 -8 c-3 -5
-12 -10 -18 -10 -7 0 -6 4 3 10 19 12 23 12 15 0z m-3880 -9 c3 -5 1 -12 -5
-16 -5 -3 -10 1 -10 9 0 18 6 21 15 7z m2322 -47 c-3 -3 -12 -4 -19 -1 -8 3
-5 6 6 6 11 1 17 -2 13 -5z m1521 -8 c-2 -1 -12 -8 -22 -16 -18 -14 -18 -14
-6 7 8 12 18 19 23 16 4 -3 7 -6 5 -7z m-391 -38 c2 -18 0 -20 -7 -8 -12 18
-13 30 -2 30 4 0 9 -10 9 -22z m-5447 -105 c21 -36 5 -48 -21 -15 -18 22 -49
78 -49 88 0 13 49 -38 70 -73z m5460 62 c0 -8 -4 -15 -9 -15 -5 0 -11 7 -15
15 -3 9 0 15 9 15 8 0 15 -7 15 -15z m-5644 -107 c0 -12 -6 -23 -13 -25 -6 -2
-10 3 -8 14 2 10 4 21 4 26 2 18 18 5 17 -15z m-64 -93 c-9 -20 -9 -35 0 -65
12 -38 15 -40 48 -37 19 1 36 8 36 15 1 6 2 17 3 22 0 6 6 10 11 10 15 0 12
-38 -3 -47 -16 -9 -155 -193 -177 -235 -8 -15 -55 -85 -104 -155 -102 -146
-271 -467 -341 -647 -25 -64 -45 -121 -45 -126 0 -5 -16 -42 -36 -82 -34 -69
-114 -300 -114 -329 0 -13 -156 -109 -177 -109 -6 0 -27 -11 -47 -25 l-36 -25
5 33 c22 129 93 369 160 542 42 110 89 205 239 486 191 359 540 849 578 811 9
-9 9 -18 0 -37z m6188 -106 c0 -4 -6 -10 -12 -12 -9 -4 -8 -6 3 -6 8 -1 24 6
35 14 22 17 60 20 69 5 3 -5 28 -10 55 -10 l49 0 7 -47 c8 -53 11 -423 4 -653
l-4 -145 -6 169 c-4 133 -8 170 -19 174 -10 3 -12 0 -8 -12 4 -9 1 -34 -7 -56
-7 -22 -9 -37 -4 -34 6 4 5 -3 -2 -15 -8 -16 -8 -26 -1 -35 8 -10 7 -17 -4
-26 -8 -7 -15 -19 -15 -28 0 -15 -12 -11 -12 5 0 4 -4 16 -9 26 -7 12 -6 17 3
18 8 0 9 2 2 5 -6 2 -46 -12 -89 -31 -62 -28 -80 -33 -88 -23 -6 9 -7 8 -3 -4
4 -14 0 -18 -21 -18 -21 0 -24 2 -13 15 7 8 9 15 4 15 -4 0 -3 5 4 12 9 9 9
15 -1 27 -9 12 -9 13 1 7 8 -5 12 -1 12 13 0 11 5 23 10 26 6 3 10 1 10 -5 0
-6 5 -8 10 -5 6 4 1 14 -11 24 -17 14 -19 20 -9 26 9 6 11 4 5 -6 -5 -10 -5
-11 2 -4 6 6 14 21 18 35 6 23 6 23 -7 7 -7 -10 -22 -20 -33 -21 -11 -2 -19
-9 -17 -16 1 -6 -2 -9 -7 -6 -5 3 -18 -10 -30 -30 -23 -39 -27 -59 -9 -48 7 4
8 3 4 -5 -4 -6 -11 -9 -15 -6 -5 2 -9 -23 -9 -56 -1 -43 -6 -67 -18 -80 -19
-21 -64 -25 -82 -7 -8 8 -15 8 -26 -1 -11 -9 -16 -9 -22 0 -4 7 -3 9 4 5 17
-10 23 9 8 29 -14 20 -38 12 -30 -10 3 -7 1 -22 -5 -32 -9 -16 -11 -14 -12 12
-4 64 1 128 11 140 8 10 5 17 -12 30 -17 13 -19 18 -9 22 11 5 11 7 0 14 -10
6 -11 9 -1 9 6 0 12 5 12 11 0 5 -5 7 -10 4 -11 -7 -4 181 8 199 3 5 0 6 -6 2
-7 -4 -10 17 -7 71 2 54 1 67 -5 43 -7 -34 -7 -34 -9 15 -2 28 -4 60 -7 72 -2
14 4 30 18 43 16 15 19 23 11 28 -8 5 -9 13 -3 22 5 8 3 24 -5 40 -8 16 -10
32 -5 40 6 9 4 17 -3 22 -7 5 72 7 176 6 103 -1 187 -5 187 -9z m-3362 -165
c39 -5 52 -4 52 6 0 10 3 10 15 0 11 -9 61 -13 163 -14 81 -1 158 -5 171 -9
15 -4 31 -1 40 6 12 10 13 9 7 -1 -6 -9 1 -12 26 -11 18 0 44 -2 58 -6 14 -3
37 -6 53 -6 15 0 27 -5 27 -11 0 -5 7 -7 15 -4 9 3 18 -1 21 -9 4 -8 17 -15
30 -15 13 0 24 -4 24 -8 0 -6 73 -31 110 -37 29 -5 68 -19 80 -29 16 -14 68
-33 165 -61 75 -21 158 -75 210 -135 35 -40 124 -115 173 -145 9 -5 24 -18 33
-27 9 -10 20 -18 24 -18 9 0 205 -202 205 -212 0 -4 23 -29 50 -56 28 -27 50
-54 50 -60 0 -7 7 -12 15 -12 8 0 15 -6 15 -14 0 -8 7 -16 15 -20 8 -3 15 -12
15 -21 0 -8 20 -53 45 -99 24 -46 52 -103 61 -127 9 -24 22 -58 30 -75 7 -17
20 -86 28 -153 14 -111 41 -218 58 -231 3 -3 10 -18 13 -33 4 -15 10 -27 14
-27 8 0 37 -139 33 -154 -2 -4 2 -14 7 -20 6 -7 11 -27 13 -44 1 -18 6 -32 11
-32 4 0 6 -4 3 -9 -3 -4 4 -25 14 -47 21 -40 25 -58 12 -50 -4 3 -3 -15 2 -40
6 -24 15 -44 19 -44 5 0 3 -8 -4 -17 -10 -11 -10 -14 -1 -9 9 5 12 -5 13 -41
1 -26 2 -64 3 -83 2 -57 -11 -182 -24 -230 -7 -25 -12 -52 -12 -60 0 -8 -7
-42 -15 -75 -15 -62 -21 -91 -22 -113 -1 -7 -4 -11 -8 -9 -5 3 -8 -5 -9 -16
-3 -54 -9 -97 -14 -97 -3 0 -6 -10 -7 -23 -3 -26 -8 -46 -16 -67 -4 -8 -18
-51 -32 -94 -14 -44 -29 -84 -32 -90 -4 -6 -7 -24 -8 -41 -1 -43 -88 -217
-133 -265 -20 -22 -23 -22 -17 -5 3 11 -2 5 -10 -13 -11 -23 -21 -32 -31 -28
-9 3 -12 1 -9 -4 3 -6 -2 -10 -12 -11 -12 -1 -10 -3 7 -8 25 -7 24 -8 -8 -15
-18 -4 -30 -12 -26 -17 3 -5 -4 -9 -16 -9 -12 0 -18 -4 -15 -10 3 -5 1 -10 -5
-10 -6 0 -8 -5 -4 -12 5 -8 2 -9 -10 -5 -14 6 -17 3 -12 -8 4 -11 -3 -19 -20
-25 -18 -7 -24 -15 -20 -26 5 -12 1 -14 -16 -8 -26 8 -48 28 -48 43 0 6 -3 10
-7 10 -27 -4 -34 2 -19 17 16 16 22 39 8 30 -4 -2 -9 5 -9 17 -2 17 0 18 7 7
7 -11 10 -8 16 14 5 20 9 24 15 14 6 -10 9 -10 9 0 0 6 9 21 20 32 11 11 20
27 20 35 0 8 5 15 10 15 6 0 10 7 10 15 0 8 -5 15 -11 15 -5 0 -8 -4 -5 -9 3
-5 -1 -14 -9 -21 -8 -7 -12 -17 -8 -24 4 -6 -2 -4 -12 4 -17 14 -18 13 -13 -7
4 -15 2 -20 -8 -16 -15 6 -74 -27 -74 -41 0 -5 -3 -7 -6 -3 -3 3 -15 -3 -27
-13 -12 -10 -35 -30 -52 -45 -16 -14 -59 -44 -93 -67 -53 -35 -67 -40 -80 -29
-10 6 -29 17 -44 24 -25 10 -33 25 -29 50 0 4 -4 7 -10 7 -5 0 -7 5 -3 12 10
15 -11 3 -61 -37 -56 -45 -105 -92 -105 -100 0 -4 -19 -26 -43 -48 -41 -39
-120 -77 -163 -77 -9 0 -14 -3 -11 -7 8 -7 -160 -83 -185 -83 -10 0 -18 -3
-18 -8 0 -7 -80 -30 -134 -38 -16 -2 -34 -8 -40 -13 -6 -5 -29 -11 -51 -15
-42 -6 -122 -21 -165 -31 -14 -3 -45 -10 -70 -16 -72 -17 -179 -28 -216 -24
-19 3 -34 0 -34 -5 0 -6 -13 -10 -28 -10 -15 0 -32 -4 -38 -9 -24 -25 -174
-49 -234 -38 -41 7 -101 15 -155 20 -11 1 -23 6 -26 10 -3 4 -28 8 -55 9 -27
0 -52 5 -56 11 -3 6 -26 12 -50 14 -23 3 -44 9 -46 14 -2 5 -21 9 -43 9 -21 0
-39 5 -39 10 0 6 -9 10 -19 10 -11 0 -26 6 -33 13 -7 6 -22 13 -33 15 -11 1
-28 3 -37 4 -10 1 -18 6 -18 10 0 4 -7 8 -15 8 -8 0 -15 7 -15 15 0 8 5 15 12
15 7 0 6 6 -4 18 -25 29 -30 52 -10 52 14 0 15 2 2 10 -12 8 -12 10 2 15 10 4
20 15 23 24 3 10 21 27 40 37 19 10 35 22 35 26 0 5 6 8 14 8 7 0 25 9 38 20
14 10 28 17 31 13 4 -3 14 0 23 8 10 8 18 12 18 9 1 -5 131 48 216 89 30 14
58 25 63 23 4 -1 7 6 7 16 0 14 2 15 10 2 9 -13 10 -13 10 0 0 8 16 26 35 40
19 14 35 31 35 38 0 6 7 12 15 12 8 0 15 7 15 15 0 8 4 15 10 15 6 0 8 -16 5
-36 -4 -33 -3 -35 13 -22 9 7 24 20 32 28 19 19 68 51 76 49 4 0 11 6 15 14 5
8 29 18 55 22 25 3 55 8 65 10 13 3 17 0 13 -7 -5 -8 -1 -9 12 -3 10 4 29 10
42 12 12 3 22 10 22 15 0 5 4 7 9 3 5 -3 29 2 53 10 24 9 63 23 88 32 59 20
154 64 160 73 3 5 14 10 25 12 11 1 28 12 38 22 9 10 17 15 17 10 0 -5 4 -3 9
5 5 8 17 16 26 17 9 1 28 16 42 33 14 17 34 31 44 31 10 0 26 10 36 23 10 13
24 22 31 19 11 -3 17 10 13 31 -1 5 9 6 21 2 18 -5 20 -4 8 4 -13 9 -12 12 5
25 25 19 32 19 38 4 3 -8 6 -6 6 4 1 12 6 15 18 11 10 -4 14 -2 10 4 -4 6 3
13 14 16 16 4 20 11 16 27 -4 17 -3 19 9 9 11 -9 19 -6 37 17 12 16 21 32 19
37 -1 5 1 6 6 3 10 -6 43 30 35 38 -4 3 1 6 10 6 9 0 17 4 17 9 0 5 11 23 25
39 13 16 22 32 18 36 -3 3 -1 6 5 6 6 0 21 18 32 40 12 23 28 44 36 47 8 3 13
11 10 18 -3 8 4 24 16 37 11 13 26 35 34 51 8 15 19 27 25 27 6 0 7 5 4 10 -3
6 -2 10 3 10 5 0 15 14 22 30 12 29 11 118 -5 395 -2 33 -5 96 -6 140 -1 44
-6 94 -11 110 -5 17 -11 48 -14 70 -9 77 -34 187 -46 200 -4 5 -8 21 -8 36 0
15 -4 31 -10 34 -5 3 -10 17 -10 31 0 13 -5 24 -11 24 -7 0 -9 -10 -5 -27 52
-211 65 -323 61 -523 -2 -102 -5 -203 -6 -225 -2 -22 10 -80 24 -128 l27 -88
-19 -45 c-14 -31 -26 -44 -40 -44 -25 0 -28 20 -3 21 14 0 14 2 -3 9 -14 6
-16 9 -5 10 8 1 2 6 -15 11 -24 7 -37 3 -77 -22 -50 -33 -118 -101 -119 -122
-4 -79 -55 -156 -138 -210 -23 -16 -69 -53 -102 -83 -33 -30 -85 -71 -117 -91
-56 -36 -69 -45 -97 -71 -8 -7 -15 -10 -15 -5 0 4 -4 3 -8 -3 -6 -9 -117 -68
-132 -70 -3 0 -21 -7 -41 -16 -20 -9 -47 -19 -60 -23 -13 -3 -39 -13 -57 -21
-18 -8 -37 -12 -42 -9 -6 3 -10 2 -10 -4 0 -6 -17 -15 -37 -21 -64 -19 -281
-74 -328 -84 -37 -7 -95 -55 -95 -79 0 -7 -9 -23 -20 -35 -23 -25 -80 -56 -80
-45 0 5 -4 3 -8 -4 -8 -13 -123 -44 -237 -64 -75 -13 -145 -40 -212 -82 -23
-15 -61 -29 -85 -33 -24 -3 -52 -9 -63 -14 -11 -4 -44 -13 -74 -19 -61 -13
-133 -63 -124 -86 3 -8 13 -15 22 -15 9 0 36 -23 60 -51 61 -71 137 -129 170
-129 15 0 72 -15 127 -33 54 -19 131 -41 169 -50 158 -37 203 -48 255 -63 62
-17 85 -23 118 -30 53 -11 129 -33 163 -48 36 -15 39 -14 97 14 70 35 173 71
222 77 19 2 60 9 90 14 30 6 90 12 133 14 42 2 94 6 115 9 20 3 62 8 92 11 81
7 111 15 147 36 18 10 75 32 125 49 51 17 112 40 135 50 24 11 45 20 48 20 2
0 46 20 97 44 51 24 109 50 128 59 19 9 41 25 48 36 19 32 52 27 53 -6 1 -16
1 -32 0 -36 -4 -21 45 1 57 26 7 15 17 25 23 22 13 -8 11 -46 -4 -72 -21 -37
-144 -120 -220 -148 -40 -14 -80 -30 -89 -36 -10 -5 -22 -9 -28 -9 -5 0 -33
-11 -62 -24 -58 -26 -211 -76 -234 -76 -8 0 -14 -4 -14 -10 0 -5 -8 -10 -17
-10 -24 0 -105 -29 -122 -43 -9 -8 -67 -12 -175 -12 -136 0 -167 -3 -201 -19
-82 -37 -141 -56 -240 -75 -33 -7 -90 -19 -126 -27 -92 -20 -100 -19 -175 21
-36 19 -73 35 -81 35 -8 0 -36 7 -62 15 -128 42 -325 95 -349 95 -36 0 -287
57 -315 71 -71 37 -224 243 -211 284 3 11 7 31 7 44 2 28 40 59 82 67 16 3 35
10 42 15 6 6 24 12 40 14 15 1 29 8 31 14 2 6 17 11 33 11 17 0 32 6 35 15 4
8 10 13 14 10 4 -3 19 4 31 16 16 14 18 19 7 15 -9 -2 -19 2 -22 10 -3 8 0 14
6 14 6 0 8 3 5 7 -4 3 -2 12 3 18 8 9 6 14 -6 19 -12 4 -15 2 -11 -9 7 -17 -9
-30 -18 -16 -3 6 -13 8 -23 5 -14 -5 -14 -4 -2 4 8 6 18 8 24 5 5 -4 6 -1 1 6
-4 8 -18 10 -34 7 -14 -3 -20 -3 -13 0 24 11 12 24 -13 14 -18 -7 -25 -6 -26
3 0 6 -4 3 -9 -8 -7 -16 -9 -17 -9 -3 -1 9 4 20 9 23 6 3 10 12 10 18 0 8 -3
8 -8 2 -4 -5 -15 -11 -25 -13 -15 -3 -17 1 -12 17 7 22 3 24 -32 15 -13 -4
-20 -11 -16 -20 3 -8 1 -14 -5 -14 -5 0 -9 10 -8 23 0 12 -4 21 -10 20 -7 -1
-15 14 -19 34 -5 27 -9 33 -16 22 -6 -10 -9 -10 -9 -2 0 7 -6 12 -12 10 -10
-1 -13 28 -15 116 0 65 -4 121 -7 124 -3 4 -6 -5 -6 -19 0 -21 -4 -25 -20 -21
-18 5 -20 11 -14 49 6 41 5 42 -16 37 -21 -6 -21 -7 -6 -18 31 -24 16 -25 -24
-3 -22 13 -40 27 -40 32 0 5 7 3 15 -4 16 -13 20 -3 7 18 -5 7 -15 10 -23 7
-9 -3 -21 7 -33 27 -11 18 -24 36 -30 40 -7 5 -4 8 7 8 9 0 17 5 17 11 0 6 -7
8 -16 5 -11 -4 -15 0 -14 17 1 12 2 31 1 42 -1 16 -3 17 -10 6 -8 -12 -12 -12
-25 -2 -13 11 -18 10 -31 -2 -11 -12 -12 -17 -2 -20 16 -6 5 -17 -22 -22 -18
-3 -20 -1 -11 16 9 15 7 19 -5 19 -13 0 -19 18 -18 58 1 6 -3 12 -8 12 -5 0
-6 7 -3 15 5 12 2 14 -12 8 -17 -6 -17 -5 -5 10 7 9 9 17 5 17 -19 0 -35 40
-24 60 9 18 7 20 -17 20 l-28 1 22 18 c20 16 21 20 8 31 -13 11 -13 14 2 26
16 12 13 12 -15 3 -26 -9 -36 -9 -45 1 -9 10 -9 11 1 6 8 -5 12 2 12 23 0 17
-4 31 -10 31 -5 0 -12 11 -16 24 -4 17 -11 23 -22 19 -10 -3 -13 -1 -7 4 6 4
11 17 12 28 1 11 0 14 -3 8 -10 -22 -24 -14 -24 12 0 14 6 25 13 26 8 0 8 2
-2 6 -11 4 -11 7 0 13 10 7 10 14 1 34 -6 14 -9 39 -6 56 4 20 2 30 -5 30 -7
0 -10 -8 -7 -17 3 -10 1 -25 -5 -33 -9 -13 -10 -13 -6 2 7 21 -11 90 -27 101
-8 6 -7 10 3 14 10 4 10 7 2 13 -7 4 -13 21 -13 38 -1 21 -6 32 -16 32 -12 0
-12 2 -1 17 10 12 14 56 16 172 0 86 2 156 3 156 2 0 4 10 5 23 2 16 -1 20
-10 12 -8 -7 -10 -1 -7 23 3 17 12 38 21 45 14 11 13 12 -6 3 -14 -7 -24 -8
-28 -1 -3 5 1 10 9 10 18 0 30 39 24 75 -3 14 -1 25 4 25 5 0 6 5 3 10 -3 6
-3 10 2 10 4 0 9 50 10 111 1 94 -1 108 -13 98 -22 -18 -17 6 6 26 15 14 17
21 9 32 -9 10 -8 13 0 13 7 0 10 4 6 9 -3 5 7 19 21 30 22 17 23 21 8 21 -16
0 -16 1 -2 13 9 6 19 25 22 41 4 17 14 35 23 41 8 6 16 23 16 37 0 18 4 25 13
21 8 -3 14 0 14 6 0 6 -5 11 -11 11 -5 0 -7 5 -4 10 4 6 11 7 17 4 6 -4 8 -2
5 4 -10 15 3 42 19 42 13 0 41 51 32 57 -2 2 7 10 20 18 26 19 29 35 5 36 -17
1 -17 2 0 6 9 2 15 9 12 14 -4 5 -1 9 4 9 6 0 11 -6 11 -12 0 -9 3 -8 9 2 6 8
7 18 5 22 -3 4 11 15 30 25 23 10 36 24 36 35 0 11 4 17 8 14 5 -3 16 6 26 19
10 14 23 22 29 18 6 -3 7 -1 3 6 -4 6 0 14 8 17 9 3 16 12 16 20 0 8 5 14 10
14 6 0 10 8 10 18 0 19 34 62 49 62 4 0 24 15 43 34 19 19 49 41 66 50 18 9
32 21 32 27 0 6 4 8 9 5 5 -3 20 4 33 17 14 12 34 28 44 34 10 7 49 32 85 56
36 24 80 50 98 58 17 8 31 17 31 21 0 5 5 8 10 8 9 0 39 12 135 55 17 7 81 38
142 69 120 60 218 98 227 88 3 -3 6 -1 6 5 0 6 16 10 36 9 20 -1 38 3 41 8 4
5 0 6 -8 1 -11 -6 -11 -5 -3 4 6 7 25 13 43 13 21 1 28 4 22 12 -13 16 104 15
121 -1 14 -15 72 -18 64 -4 -5 8 19 24 27 18 2 -1 12 6 22 16 10 10 26 16 36
14 11 -3 21 -2 24 3 2 4 15 6 27 4 13 -2 47 -6 76 -10z m-2828 -527 c-10 -23
-16 -45 -13 -51 4 -5 1 -6 -7 -1 -16 10 -30 -12 -30 -46 0 -15 -7 -30 -15 -33
-9 -3 -15 -11 -14 -18 1 -7 -8 -35 -19 -61 -12 -27 -25 -60 -28 -74 -4 -13
-12 -27 -20 -30 -12 -4 -38 -60 -35 -76 0 -4 -6 -10 -14 -13 -8 -3 -12 -10 -9
-16 3 -5 -1 -17 -9 -26 -8 -9 -14 -32 -14 -51 0 -26 -7 -41 -31 -63 -18 -15
-37 -28 -43 -28 -23 0 19 130 81 250 15 30 36 79 46 108 9 30 40 88 68 130 28
41 55 83 61 93 5 10 19 23 31 30 14 7 20 18 17 28 -4 13 -3 13 5 2 7 -9 4 -26
-8 -54z m4761 26 c13 -16 12 -17 -3 -4 -10 7 -18 15 -18 17 0 8 8 3 21 -13z
m1334 -23 c-3 -5 -12 -10 -18 -10 -7 0 -6 4 3 10 19 12 23 12 15 0z m202 -2
c-2 -7 -11 -12 -18 -10 -8 1 -5 -4 5 -13 21 -16 10 -21 -13 -6 -12 8 -12 12
-2 25 16 19 35 21 28 4z m-67 -48 c0 -5 -5 -10 -11 -10 -5 0 -7 5 -4 10 3 6 8
10 11 10 2 0 4 -4 4 -10z m54 -8 c3 -5 -1 -9 -9 -9 -8 0 -12 4 -9 9 3 4 7 8 9
8 2 0 6 -4 9 -8z m-179 -11 c3 -5 2 -12 -3 -15 -5 -3 -9 1 -9 9 0 17 3 19 12
6z m60 -9 c-3 -3 -11 0 -18 7 -9 10 -8 11 6 5 10 -3 15 -9 12 -12z m-484 -75
c-10 -9 -11 -8 -5 6 3 10 9 15 12 12 3 -3 0 -11 -7 -18z m719 -103 c0 -8 -5
-12 -10 -9 -6 4 -8 11 -5 16 9 14 15 11 15 -7z m-263 0 c-3 -3 -12 -4 -19 -1
-8 3 -5 6 6 6 11 1 17 -2 13 -5z m-254 -51 c-7 -2 -19 -2 -25 0 -7 3 -2 5 12
5 14 0 19 -2 13 -5z m484 -14 c7 -7 14 -6 20 3 13 20 18 -52 15 -195 -2 -78
-7 -125 -13 -122 -5 4 -7 11 -3 16 3 6 -4 18 -16 29 -12 10 -21 21 -20 24 4
15 -7 27 -28 31 -12 2 -22 -1 -22 -6 0 -6 -4 -7 -10 -4 -5 3 -11 1 -11 -4 -1
-6 -2 -17 -3 -23 -1 -7 3 -16 9 -20 6 -5 6 -8 -2 -8 -6 0 -14 4 -18 10 -3 5
-11 8 -18 6 -7 -1 -8 -1 -4 2 4 2 3 10 -4 18 -6 8 -8 14 -3 14 5 0 2 5 -6 10
-12 7 -12 10 -1 10 7 0 22 11 33 25 11 14 29 25 41 25 18 0 19 -2 7 -10 -13
-9 -12 -12 4 -25 16 -12 22 -12 28 -2 4 6 3 14 -2 15 -6 2 -7 9 -3 15 4 7 8
33 8 58 l1 47 -38 -6 c-48 -6 -50 12 -3 28 46 15 36 31 -11 18 -20 -5 -46 -7
-58 -4 -11 3 -82 6 -156 7 -79 2 -139 7 -146 13 -9 8 4 12 45 16 87 8 375 -1
388 -11z m-302 -81 c-9 -6 -19 -7 -22 -4 -4 3 -1 6 6 6 7 0 9 4 6 10 -4 6 1 7
11 3 15 -6 15 -7 -1 -15z m-35 -3 c0 -13 4 -16 25 -15 3 0 19 -7 36 -15 22
-12 28 -20 21 -28 -6 -7 -11 -16 -12 -22 -1 -5 -8 -9 -17 -7 -10 2 -12 -1 -7
-10 4 -7 3 -9 -1 -5 -15 13 -14 38 1 44 19 7 18 23 -2 23 -9 0 -25 -10 -35
-22 -11 -12 -19 -16 -19 -8 0 7 8 19 18 27 16 13 15 14 -5 8 -12 -3 -25 -1
-29 6 -5 8 -3 9 6 4 10 -6 12 -3 8 13 -4 12 -2 22 3 22 5 0 9 -7 9 -15z m244
-14 c3 -4 -6 -6 -19 -3 -14 2 -25 6 -25 8 0 8 39 4 44 -5z m-52 -27 c-29 -20
-44 -21 -47 -1 -3 14 0 16 10 7 9 -8 14 -7 18 5 4 8 13 12 22 9 14 -6 14 -8
-3 -20z m-6408 -9 c-4 -8 -10 -12 -15 -9 -11 6 -2 24 11 24 5 0 7 -7 4 -15z
m6328 -18 c-9 -11 -7 -13 11 -13 12 1 21 -4 20 -11 -2 -7 4 -10 12 -7 11 5 14
0 12 -15 -2 -11 -7 -24 -12 -28 -4 -5 -5 -1 -1 7 4 8 0 6 -8 -4 -16 -20 -16
-20 -17 0 -1 10 -1 22 -1 25 1 3 -16 5 -36 3 -28 -2 -33 0 -19 7 9 6 17 14 17
20 0 12 23 39 29 33 2 -2 -1 -10 -7 -17z m87 16 c-4 -23 2 -43 11 -38 5 3 7
13 4 23 -5 14 -3 14 6 -2 17 -26 -8 -41 -32 -19 -14 12 -15 19 -7 30 13 15 20
17 18 6z m-380 -144 c42 -23 103 -57 137 -75 33 -18 112 -64 175 -101 63 -37
153 -90 200 -116 46 -27 165 -96 264 -154 99 -58 207 -118 239 -135 33 -16
118 -66 190 -110 72 -44 167 -99 211 -123 162 -85 215 -117 240 -147 26 -31
30 -44 17 -52 -12 -7 -1028 -10 -1303 -4 -125 3 -232 9 -238 12 -6 4 -11 14
-11 22 0 9 5 12 11 8 8 -4 10 7 6 37 -3 24 -4 36 -1 27 3 -10 10 -18 15 -18
19 0 28 50 29 161 2 90 -2 127 -18 176 -11 34 -17 65 -14 68 4 3 0 10 -8 15
-11 7 -12 10 -2 10 7 0 10 5 7 10 -4 6 -11 8 -16 5 -5 -4 -9 1 -9 9 0 9 -4 16
-8 16 -5 0 -21 55 -37 123 -15 67 -35 136 -43 152 -9 17 -16 35 -16 40 -1 6
-5 11 -9 12 -13 4 -36 30 -47 55 -6 13 -22 38 -35 57 -27 36 -32 61 -13 61 6
0 45 -19 87 -41z m511 -35 c0 -8 -5 -12 -10 -9 -6 4 -8 11 -5 16 9 14 15 11
15 -7z m32 -52 c2 6 5 -20 5 -60 1 -41 -3 -72 -8 -72 -6 0 -7 5 -4 10 3 6 1
10 -4 10 -6 0 -11 9 -11 20 0 11 -4 20 -10 20 -5 0 -10 23 -10 52 l0 51 19
-22 c13 -14 20 -18 23 -9z m-6420 -81 c5 -35 -8 -75 -22 -66 -18 11 -10 95 10
95 4 0 10 -13 12 -29z m-142 -682 c0 -9 -6 -22 -14 -28 -19 -16 -28 11 -15 46
8 22 12 24 19 13 6 -8 10 -22 10 -31z m4 -270 c3 -59 12 -135 20 -170 9 -35
17 -80 20 -99 3 -19 10 -62 15 -95 6 -33 11 -62 12 -65 0 -7 22 42 23 54 1 5
12 16 26 24 14 9 22 12 18 7 -4 -4 -3 -14 3 -22 9 -10 8 -13 -2 -13 -9 0 -10
-3 -4 -8 14 -10 18 -30 19 -90 1 -47 5 -57 34 -83 17 -16 32 -38 32 -48 0 -11
5 -23 10 -26 6 -3 10 -18 10 -32 0 -21 34 -80 59 -103 4 -3 7 -12 9 -20 2 -8
9 -22 17 -30 7 -8 24 -40 38 -70 20 -40 28 -50 33 -37 3 9 10 17 14 17 13 0
60 -97 60 -124 0 -27 -24 -51 -41 -41 -8 6 -8 2 0 -12 6 -11 9 -22 8 -24 -1
-2 3 1 8 7 23 25 54 -5 97 -93 24 -48 48 -94 55 -101 6 -7 25 -38 41 -70 16
-31 39 -73 51 -92 11 -19 21 -42 21 -50 0 -9 18 -42 39 -75 52 -78 33 -85 -35
-12 -49 53 -53 55 -74 40 -21 -15 -21 -15 -2 -33 24 -23 19 -72 -6 -63 -9 4
-13 2 -9 -4 9 -14 -27 -7 -72 15 -23 12 -35 13 -38 6 -6 -18 -48 -4 -79 26
-48 46 -90 110 -155 235 -37 72 -65 139 -69 167 l-6 47 28 -20 c28 -20 52 -18
46 5 -2 7 -28 33 -58 57 -82 67 -120 149 -181 389 -12 47 -24 99 -26 115 -3
17 -9 37 -13 45 -4 8 -11 51 -15 95 -4 44 -9 89 -11 100 -2 10 -6 64 -9 120
-17 329 -13 408 20 374 9 -9 16 -48 19 -120z m996 121 c0 -5 -5 -10 -11 -10
-5 0 -7 5 -4 10 3 6 8 10 11 10 2 0 4 -4 4 -10z m6614 -48 c2 -4 2 -13 -2 -18
-8 -13 -212 -134 -225 -134 -10 0 -208 -109 -292 -160 -183 -113 -399 -230
-424 -230 -21 0 8 40 37 51 75 29 148 70 322 183 84 55 123 77 140 80 3 1 26
17 50 37 56 44 113 79 131 79 8 0 25 9 39 20 24 18 24 19 6 33 -18 13 -18 14
10 21 16 4 31 12 35 17 10 16 164 35 173 21z m-299 -22 c4 -6 -6 -10 -22 -9
-25 0 -26 1 -8 9 11 5 21 9 22 9 1 1 5 -3 8 -9z m42 4 c-3 -3 -12 -4 -19 -1
-8 3 -5 6 6 6 11 1 17 -2 13 -5z m-638 -35 c28 -1 51 -6 51 -11 0 -15 -113 -5
-118 11 -3 8 0 11 5 8 6 -4 33 -7 62 -8z m-8149 -52 c189 -82 407 -197 496
-260 50 -35 106 -73 125 -83 19 -10 50 -31 70 -46 20 -15 76 -47 125 -71 70
-35 97 -43 125 -40 44 6 79 -11 79 -36 0 -26 29 -55 85 -84 64 -34 88 -53 84
-66 -2 -6 -34 9 -71 34 -37 25 -76 45 -86 45 -10 0 -31 14 -47 30 -16 17 -34
30 -41 30 -7 0 -38 14 -69 30 -31 17 -61 30 -66 30 -27 0 -129 48 -196 94 -43
29 -100 65 -128 80 -27 16 -72 43 -100 61 -27 18 -124 71 -215 117 -91 47
-192 100 -225 117 -152 79 -114 92 55 18z m8053 36 c-7 -2 -19 -2 -25 0 -7 3
-2 5 12 5 14 0 19 -2 13 -5z m-8221 -24 c30 -15 37 -24 29 -32 -8 -8 -14 -8
-23 1 -18 18 -48 15 -48 -5 0 -19 14 -46 21 -42 2 1 14 -1 26 -5 31 -10 37
-89 35 -464 0 -172 3 -324 8 -338 6 -15 6 -24 0 -24 -6 0 -10 -12 -9 -27 0
-25 1 -26 9 -8 10 24 10 24 17 -40 6 -58 13 -73 13 -27 0 24 4 30 15 26 12 -5
15 6 15 65 0 69 1 71 31 86 17 9 28 19 25 22 -3 3 1 12 9 20 13 12 11 19 -10
53 -14 22 -25 44 -25 50 0 5 -5 10 -11 10 -8 0 -10 12 -6 36 7 45 12 50 31 35
12 -10 16 -8 21 9 4 12 9 19 12 16 4 -3 12 2 20 12 8 9 12 12 9 5 -4 -7 5 -6
25 4 22 11 34 12 42 4 16 -16 24 -14 30 9 3 13 10 18 21 14 11 -4 16 -1 16 11
0 12 5 15 20 10 11 -4 20 -3 19 2 -5 20 14 82 27 87 33 13 32 41 39 -984 7
-1046 13 -1145 97 -1420 68 -226 143 -383 262 -552 33 -47 62 -85 64 -84 4 4
109 -108 154 -164 19 -25 61 -63 93 -85 32 -22 74 -54 94 -72 89 -77 329 -182
530 -232 255 -64 394 -73 1106 -75 353 -1 606 -5 615 -10 8 -6 139 -9 312 -7
303 3 401 -6 412 -35 3 -8 -1 -14 -9 -14 -17 0 -19 -9 -6 -29 5 -7 14 -10 20
-7 6 4 22 -4 35 -17 27 -27 86 -138 86 -162 0 -8 4 -15 8 -15 9 0 32 -44 32
-60 0 -5 -12 -11 -27 -13 -21 -3 -20 -4 5 -3 26 2 39 -5 63 -31 16 -19 29 -37
29 -41 0 -4 -25 -13 -54 -20 -41 -10 -184 -13 -558 -12 l-503 1 -55 26 c-30
14 -49 28 -42 30 17 6 46 63 32 63 -6 0 -8 5 -5 10 16 25 -34 0 -92 -47 -24
-19 -43 -41 -43 -48 0 -11 -6 -12 -23 -6 -16 6 -29 4 -42 -5 -16 -12 -68 -14
-275 -13 -140 1 -313 6 -385 11 -170 12 -183 11 -211 -7 -32 -20 -49 -19 -65
6 -13 19 -19 20 -94 12 -44 -5 -98 -6 -120 -2 -22 4 -75 9 -118 13 -43 3 -81
8 -86 10 -4 3 -51 12 -104 20 -222 36 -486 150 -750 323 -107 70 -121 87 -136
152 -11 51 -25 67 -88 101 -38 20 -74 60 -185 204 -75 98 -140 187 -143 198
-4 10 -33 31 -69 47 -73 33 -81 43 -64 70 10 16 9 23 -4 38 -26 30 -31 72 -12
100 15 24 15 28 -5 67 -51 104 -105 375 -121 611 -9 136 -29 379 -45 545 -8
88 -15 329 -16 560 -1 737 2 1500 6 1500 3 0 24 -9 47 -21z m5464 -371 c19
-21 19 -21 -1 -15 -18 6 -18 6 -3 -6 15 -12 16 -16 2 -43 -22 -42 -32 -50 -46
-36 -7 7 -8 12 -2 12 5 0 10 9 11 20 1 11 -2 18 -8 15 -16 -10 -10 30 9 53 9
12 17 22 18 22 0 0 9 -10 20 -22z m-4757 -55 l78 -48 7 -100 c18 -264 21 -280
36 -270 6 3 10 -2 11 -12 0 -13 2 -14 6 -4 5 13 33 -47 35 -75 1 -6 9 -9 18
-7 12 3 20 -3 24 -19 7 -22 7 -22 16 -3 5 11 9 14 9 8 1 -7 6 -13 12 -13 17 0
60 50 53 61 -3 6 2 9 12 7 10 -2 19 3 20 10 1 6 2 18 3 25 1 8 4 7 10 -3 12
-21 21 -365 27 -950 5 -511 5 -511 51 -725 17 -82 117 -294 192 -408 53 -81
183 -225 259 -288 103 -86 345 -194 490 -219 44 -8 312 -15 782 -20 393 -4
716 -8 718 -9 1 0 2 -8 2 -17 0 -8 5 -12 10 -9 6 3 10 1 10 -5 0 -6 5 -8 10
-5 7 4 9 -6 7 -28 -5 -47 16 -97 42 -97 24 0 75 -45 67 -58 -9 -15 14 -20 111
-28 83 -6 133 -23 133 -44 0 -6 -9 -10 -19 -10 -11 0 -23 -6 -28 -12 -12 -20
-14 -50 -3 -43 5 3 10 2 10 -3 0 -19 116 -46 126 -30 3 5 13 0 21 -12 8 -12
12 -24 8 -28 -12 -12 -1494 -14 -1810 -2 -238 8 -315 14 -371 29 -39 11 -87
22 -106 25 -42 6 -167 52 -259 95 -118 54 -190 102 -311 208 -241 213 -399
455 -507 779 -91 271 -111 555 -111 1555 0 626 5 849 17 849 2 0 39 -21 82
-47z m7978 -57 c-9 -87 -17 -126 -36 -190 -11 -33 -38 -119 -60 -191 -132
-428 -159 -504 -272 -757 -43 -98 -79 -187 -79 -198 0 -12 -5 -30 -11 -42 -11
-20 -11 -20 -35 3 -32 30 -30 59 5 128 90 173 226 479 260 586 13 39 25 77 28
85 3 8 8 24 10 34 4 24 50 168 97 303 19 55 42 139 51 185 20 106 24 120 37
112 6 -4 8 -27 5 -58z m-5910 18 c-3 -3 -12 -4 -19 -1 -8 3 -5 6 6 6 11 1 17
-2 13 -5z m5650 -18 c-7 -14 -13 -23 -15 -21 -2 2 -15 0 -28 -5 -35 -14 -30 5
9 28 43 27 47 27 34 -2z m-6064 -48 c-2 -5 0 -8 6 -8 5 0 8 -9 6 -20 -2 -11 1
-20 6 -20 6 0 7 -4 4 -10 -3 -5 -1 -10 4 -10 6 0 11 -8 11 -19 0 -10 6 -36 14
-57 13 -39 12 -64 -4 -64 -7 0 -17 36 -22 78 -1 6 -4 12 -8 12 -3 0 -7 14 -8
31 -1 18 -6 37 -9 43 -4 6 -7 22 -8 36 -1 14 -5 36 -8 50 -5 20 -4 19 7 -5 8
-16 12 -33 9 -37z m-548 -16 c-3 -3 -11 0 -18 7 -9 10 -8 11 6 5 10 -3 15 -9
12 -12z m6600 -5 c-3 -7 -16 -64 -29 -127 -29 -132 -151 -503 -220 -665 -26
-60 -68 -148 -93 -195 -25 -47 -68 -128 -96 -180 -86 -165 -129 -243 -176
-314 -25 -38 -50 -76 -56 -85 -5 -9 -12 -18 -15 -21 -3 -3 -37 -48 -75 -100
-76 -106 -163 -210 -175 -210 -4 0 -15 26 -24 58 -10 31 -22 70 -27 86 -16 51
-11 65 64 172 39 57 102 148 140 202 192 276 370 649 538 1127 82 234 89 251
89 207 0 -41 71 -20 108 32 12 17 22 25 22 18 0 -7 5 -10 10 -7 6 4 7 11 4 17
-4 7 -2 8 4 4 6 -4 9 -12 7 -19z m-401 -56 c6 -9 -24 -32 -57 -44 -13 -5 -16
-3 -11 6 23 41 55 59 68 38z m-5036 -148 c0 -5 2 -16 7 -26 4 -9 5 -26 2 -37
-3 -12 0 -20 7 -20 6 0 12 -10 13 -21 2 -20 1 -20 -11 -4 -7 10 -18 15 -24 11
-6 -3 -13 -2 -17 4 -3 5 -2 10 4 10 17 0 26 51 11 60 -7 4 -9 13 -6 19 8 13
17 15 14 4z m-538 -35 c0 -19 -2 -20 -10 -8 -13 19 -13 30 0 30 6 0 10 -10 10
-22z m72 -118 c9 0 9 -3 1 -11 -6 -6 -20 -8 -32 -4 -16 5 -21 15 -21 43 l0 37
20 -32 c11 -18 25 -33 32 -33z m-1478 24 c3 -8 2 -12 -4 -9 -6 3 -10 10 -10
16 0 14 7 11 14 -7z m1538 -37 c1 -15 6 -27 10 -27 4 0 4 -7 1 -17 -4 -10 -2
-14 4 -10 6 4 10 -6 11 -23 1 -38 32 -141 49 -161 7 -8 13 -21 13 -27 0 -7 5
-12 10 -12 5 0 9 -3 9 -7 -3 -20 2 -33 14 -33 7 0 21 -15 32 -32 10 -18 18
-33 17 -33 -1 0 1 -10 4 -22 4 -13 13 -23 21 -23 8 0 11 -5 8 -11 -4 -5 5 -21
19 -34 14 -13 26 -28 26 -32 0 -4 11 -21 25 -37 14 -16 25 -32 25 -35 0 -3 18
-25 40 -49 22 -23 43 -54 46 -67 3 -14 12 -25 20 -25 8 0 14 -6 14 -14 0 -14
27 -31 43 -27 5 1 5 -3 2 -9 -4 -7 7 -23 24 -37 17 -14 31 -32 31 -39 0 -8 5
-13 11 -11 6 1 14 -4 16 -11 9 -24 -53 15 -99 61 -38 39 -123 130 -195 209
-34 39 -93 125 -93 138 0 6 -4 8 -10 5 -5 -3 -10 1 -10 9 0 9 -8 16 -17 16
-14 0 -15 2 -5 9 11 7 11 11 -2 24 -9 8 -16 20 -16 26 0 6 -7 11 -16 11 -8 0
-13 4 -10 8 3 5 -6 20 -20 35 -13 14 -24 31 -24 37 0 6 -4 18 -10 28 -33 60
-49 112 -41 134 11 30 11 28 11 95 0 57 8 70 12 20z m535 -39 c-3 -8 -6 -5 -6
6 -1 11 2 17 5 13 3 -3 4 -12 1 -19z m40 -53 c-2 -31 -6 -58 -9 -61 -3 -3 -4
10 -3 28 2 18 3 45 4 61 1 15 3 27 7 27 3 0 3 -25 1 -55z m-28 1 c-9 -8 -10
-7 -5 7 3 10 7 24 7 30 1 7 3 4 6 -7 3 -10 -1 -23 -8 -30z m4676 -18 c-4 -13
-24 -64 -46 -115 -105 -250 -203 -428 -267 -490 -22 -21 -32 -38 -28 -48 4
-11 2 -14 -6 -9 -8 5 -9 2 -5 -10 4 -10 3 -15 -3 -11 -9 6 -14 -7 -11 -27 0
-4 -8 -12 -19 -18 -11 -6 -17 -16 -14 -22 4 -6 -6 -22 -22 -36 -16 -13 -23
-21 -15 -16 9 4 7 -2 -5 -19 -25 -34 -33 -34 -29 1 2 15 0 45 -5 66 -7 32 -5
42 7 51 20 15 25 42 8 42 -8 0 -12 -9 -9 -20 2 -11 0 -17 -3 -13 -11 11 -12
36 -1 42 6 4 33 8 62 10 38 3 56 10 70 27 l18 22 -46 3 c-25 2 -46 7 -46 13 0
5 4 9 9 9 8 0 97 169 111 210 10 30 91 169 105 180 8 7 15 20 15 30 0 10 8 26
18 37 9 10 16 17 15 14 -2 -2 2 -10 8 -17 16 -19 71 44 58 67 -6 12 -3 21 8
30 12 10 15 10 9 2 -5 -9 -1 -13 12 -13 10 0 24 11 30 25 14 31 26 33 17 3z
m-6600 -87 c4 -13 13 -17 30 -13 18 3 25 0 26 -12 1 -9 2 -21 3 -28 0 -6 8
-13 16 -15 13 -4 13 -3 0 6 -13 10 -13 11 0 11 13 0 13 1 0 11 -13 9 -13 10 0
6 18 -4 20 -26 6 -46 -8 -11 -8 -13 2 -7 7 4 12 2 12 -4 0 -6 5 -8 12 -4 7 4
8 3 4 -5 -4 -6 -11 -9 -16 -6 -5 3 -5 -9 1 -27 5 -18 9 -35 9 -37 0 -2 3 -2 6
2 3 3 17 1 31 -4 18 -7 30 -6 42 3 9 7 6 1 -6 -13 -17 -19 -21 -32 -16 -54 4
-17 7 -47 7 -67 1 -21 4 -38 7 -38 3 0 5 -20 4 -45 -1 -25 1 -45 5 -45 4 0 7
-7 7 -15 0 -8 -5 -12 -10 -8 -5 3 -6 -3 -3 -15 5 -15 2 -22 -13 -27 -10 -3
-23 -5 -27 -3 -5 1 -43 -2 -85 -6 -41 -4 -88 -4 -103 0 -25 6 -27 10 -24 48 2
23 6 46 9 51 3 6 5 28 5 50 -1 22 3 43 8 47 6 4 4 13 -5 24 -8 10 -9 15 -3 11
7 -4 14 2 17 14 4 14 2 19 -8 15 -15 -5 -16 39 -2 61 13 20 17 52 20 140 1 63
5 79 14 71 7 -5 15 -18 18 -27z m22 17 c2 -17 0 -19 -7 -8 -5 8 -6 18 -4 22 8
12 10 10 11 -14z m2076 -94 c-7 -3 -9 -13 -6 -22 5 -13 3 -14 -7 -5 -14 13 -5
33 13 32 9 0 9 -2 0 -5z m958 -17 c-10 -9 -11 -8 -5 6 3 10 9 15 12 12 3 -3 0
-11 -7 -18z m-868 -66 c-4 -3 -11 -10 -14 -14 -3 -5 -9 0 -11 11 -4 15 -1 18
14 14 10 -2 15 -7 11 -11z m-1941 -51 c0 -22 3 -38 8 -35 4 3 11 -2 14 -11 8
-22 8 -46 -1 -41 -7 4 -12 -30 -14 -95 0 -10 -6 -18 -12 -18 -7 0 -4 -5 6 -11
11 -7 16 -18 13 -35 -3 -14 -1 -22 5 -19 5 4 9 17 9 30 0 19 4 23 21 20 12 -3
18 -1 15 3 -4 4 -13 7 -19 7 -7 0 -13 11 -14 25 -2 23 -2 23 6 5 l10 -20 1 20
c0 15 5 11 16 -14 11 -25 11 -36 3 -42 -8 -5 -7 -9 4 -15 18 -10 10 -31 -13
-34 -43 -6 -66 1 -66 20 0 11 4 20 8 20 4 0 8 5 8 10 0 6 -7 10 -16 10 -15 0
-16 14 -11 133 3 72 6 134 7 136 0 2 3 2 6 -2 4 -3 6 -24 6 -47z m-1892 -147
c0 -80 -2 -144 -5 -141 -7 7 -18 256 -11 273 13 34 16 8 16 -132z m6740 63 c0
-11 -19 -15 -25 -6 -3 5 1 10 9 10 9 0 16 -2 16 -4z m-56 -18 c-5 -8 -2 -9 10
-5 14 6 15 4 5 -16 -11 -20 -13 -20 -19 -3 -6 17 -7 17 -23 2 -16 -16 -17 -16
-17 4 0 15 5 20 15 17 8 -4 17 -2 20 3 4 6 8 10 11 10 3 0 2 -5 -2 -12z
m-4931 -225 c49 -4 67 -9 67 -20 0 -8 5 -11 11 -7 8 4 9 -3 5 -22 -14 -65 -19
-113 -21 -179 -1 -38 -3 -71 -4 -72 0 -1 -12 2 -25 7 -22 8 -25 6 -31 -28 -4
-20 -9 -72 -10 -114 -2 -43 -6 -82 -10 -88 -3 -5 -2 -10 4 -10 11 0 61 57 61
71 0 5 3 9 8 9 7 0 5 -104 -3 -128 -3 -9 -10 -10 -23 -3 -14 7 -19 6 -19 -4 0
-8 5 -11 10 -8 6 3 7 1 3 -5 -4 -6 -14 -8 -24 -5 -9 3 2 -11 26 -32 24 -20 41
-40 38 -43 -3 -2 -12 1 -21 8 -16 13 -18 10 -9 -14 3 -9 9 -14 13 -11 4 2 8
-2 8 -9 0 -7 -6 -13 -13 -13 -7 0 -11 4 -8 8 2 4 0 10 -6 14 -5 3 -10 1 -10
-4 0 -6 -3 -10 -7 -9 -16 4 -53 -14 -48 -23 4 -5 -1 -9 -9 -9 -9 0 -16 -5 -16
-11 0 -5 5 -7 10 -4 6 3 10 1 10 -4 0 -6 -5 -11 -10 -11 -6 0 -16 -11 -22 -25
-10 -23 -8 -29 25 -59 l36 -33 -26 -12 c-14 -6 -23 -15 -19 -18 3 -3 0 -13 -7
-22 -11 -14 -10 -14 5 -2 10 7 15 18 11 25 -3 6 -3 8 2 4 4 -4 15 -2 24 4 12
10 12 8 -1 -8 -20 -23 -24 -39 -7 -29 6 4 5 -2 -2 -14 -10 -14 -15 -17 -21 -8
-4 7 -8 10 -9 7 0 -3 -2 -13 -4 -23 -2 -11 1 -17 8 -14 7 3 13 -6 13 -19 2
-20 -1 -22 -17 -13 -10 5 -18 13 -17 17 1 4 -6 25 -16 47 -25 56 -51 158 -71
285 -4 19 -11 55 -16 80 -11 44 -14 309 -6 505 l3 100 30 5 c16 3 43 4 59 2
17 -1 60 -5 98 -9z m282 -3 c28 -4 43 -8 35 -9 -13 -1 -13 -3 0 -11 10 -6 -1
-11 -40 -16 -30 -5 -58 -7 -62 -6 -14 4 -9 -4 14 -24 19 -15 20 -16 9 -1 -8
10 -9 17 -3 17 18 0 24 -20 12 -35 -9 -11 -9 -15 -1 -15 6 0 11 -5 11 -10 0
-7 -8 -7 -22 1 -18 9 -21 9 -11 -1 6 -7 9 -20 6 -29 -4 -12 -3 -13 5 -2 7 10
10 6 10 -13 0 -15 -4 -29 -9 -32 -5 -3 -9 -16 -9 -30 0 -18 -4 -23 -12 -18 -9
5 -9 2 1 -9 9 -12 10 -17 2 -17 -7 0 -9 -4 -6 -10 12 -20 14 -50 3 -56 -6 -4
-8 -2 -4 4 3 6 2 13 -4 17 -6 4 -7 11 -4 17 4 6 2 8 -4 4 -5 -3 -13 0 -16 6
-3 7 -4 0 -1 -15 4 -21 2 -27 -6 -21 -8 4 -9 3 -5 -5 4 -6 12 -9 17 -5 8 4 8
-24 0 -54 -1 -2 -6 0 -11 3 -8 5 -8 11 -1 19 8 9 7 13 -2 13 -16 0 -18 -27 -4
-45 7 -9 6 -16 -3 -25 -9 -9 -11 -9 -6 0 3 6 3 14 -2 17 -4 2 -8 -4 -9 -14 -1
-11 3 -22 8 -26 6 -4 6 -11 -2 -20 -9 -11 -9 -14 0 -14 8 0 8 -4 -1 -14 -8 -8
-15 -10 -19 -4 -9 14 -11 146 -3 160 8 13 7 232 -2 296 l-6 42 53 -1 c30 0 77
-4 104 -9z m1595 -160 c0 -5 -2 -10 -4 -10 -3 0 -8 5 -11 10 -3 6 -1 10 4 10
6 0 11 -4 11 -10z m51 -35 c5 4 9 -1 9 -10 0 -9 4 -13 10 -10 12 7 59 -25 60
-42 0 -6 -8 -9 -20 -6 -11 3 -20 12 -20 19 0 8 -9 14 -20 14 -11 0 -20 5 -20
10 0 6 -6 10 -13 10 -7 0 -13 10 -14 23 -2 19 -1 20 8 4 6 -9 14 -15 20 -12z
m109 -70 c0 -8 -4 -15 -10 -15 -5 0 -10 7 -10 15 0 8 5 15 10 15 6 0 10 -7 10
-15z m25 -25 c3 -5 -3 -10 -15 -10 -12 0 -18 5 -15 10 3 6 10 10 15 10 5 0 12
-4 15 -10z m38 -31 c-8 -8 -16 -8 -30 0 -16 9 -14 10 12 11 21 0 26 -3 18 -11z
m3182 -9 c3 -5 1 -10 -4 -10 -6 0 -11 5 -11 10 0 6 2 10 4 10 3 0 8 -4 11 -10z
m-3080 -39 c78 -37 93 -43 150 -61 22 -7 56 -19 75 -27 19 -8 44 -19 55 -23
86 -37 115 -52 115 -60 0 -6 -5 -10 -11 -10 -5 0 -7 5 -3 11 3 6 -1 10 -12 9
-33 -4 -55 0 -50 8 2 4 -12 8 -33 9 -21 1 -55 11 -75 22 -20 12 -38 20 -41 20
-15 -2 -65 14 -65 20 0 3 -20 12 -44 20 -24 7 -53 21 -63 31 -11 10 -34 25
-51 34 -18 9 -32 21 -32 27 0 6 3 9 8 7 4 -2 39 -18 77 -37z m-619 -66 c15
-20 48 -48 73 -62 25 -15 73 -45 106 -68 33 -23 87 -56 120 -74 34 -17 79 -48
100 -67 22 -20 34 -33 26 -28 -9 5 -12 3 -7 -5 4 -6 11 -9 16 -6 5 3 13 -3 19
-12 6 -10 11 -14 11 -10 0 4 10 -1 22 -12 12 -12 37 -24 55 -27 19 -4 31 -9
29 -12 -3 -3 4 -10 15 -16 12 -6 21 -14 20 -18 -1 -8 35 -48 44 -48 2 0 2 8
-1 18 -5 14 -4 15 5 2 6 -8 11 -21 11 -28 0 -18 42 -58 68 -66 12 -4 22 -14
22 -23 0 -9 6 -13 15 -9 8 3 15 1 15 -5 0 -6 4 -8 10 -4 5 3 16 -7 24 -22 8
-15 15 -24 16 -19 0 5 9 -1 20 -14 11 -13 20 -19 20 -14 0 5 5 1 11 -8 7 -12
6 -24 -1 -37 -6 -11 -9 -26 -8 -33 2 -7 -7 -14 -19 -16 -13 -2 -23 1 -23 6 0
13 -50 35 -85 36 -26 2 -56 8 -100 21 -5 1 -13 2 -16 1 -4 0 -15 6 -25 15 -22
19 -64 31 -64 18 0 -5 4 -9 9 -9 4 0 25 -13 45 -29 36 -29 129 -76 241 -123
98 -41 128 -51 158 -50 15 1 39 -3 53 -8 21 -8 26 -6 34 15 12 32 43 32 64 0
19 -29 51 -43 169 -75 48 -13 84 -26 80 -31 -12 -11 -154 6 -188 24 -17 8 -43
27 -58 42 l-27 28 -26 -27 c-29 -28 -48 -32 -91 -15 -15 6 -44 13 -63 15 -64
8 -193 56 -360 135 -292 136 -397 197 -406 235 -4 14 -13 24 -24 24 -10 0 -45
14 -78 31 -51 26 -63 37 -80 77 -28 65 -39 114 -47 207 -16 174 -13 214 17
215 4 0 19 -16 34 -35z m-3332 -255 c4 -140 11 -302 17 -360 5 -58 13 -157 18
-220 5 -63 19 -175 31 -248 12 -74 20 -136 17 -138 -8 -9 -60 222 -63 283 -2
34 -10 124 -19 200 -24 199 -31 766 -10 741 1 -2 5 -118 9 -258z m1893 158
c-3 -8 -6 -5 -6 6 -1 11 2 17 5 13 3 -3 4 -12 1 -19z m6683 -113 c5 -14 7 -32
4 -40 -4 -8 -2 -15 4 -15 6 0 8 -9 5 -20 -3 -11 -9 -20 -14 -20 -5 0 -6 7 -3
15 9 22 -4 18 -16 -5 -6 -11 -7 -19 -1 -18 5 2 10 0 10 -5 2 -13 -30 -69 -36
-63 -4 3 -1 17 6 30 11 19 10 28 -2 52 -15 31 -13 80 5 101 16 19 27 16 38
-12z m-2443 -1 c-3 -3 -12 -4 -19 -1 -8 3 -5 6 6 6 11 1 17 -2 13 -5z m-37
-18 c0 -2 -7 -6 -15 -10 -8 -3 -15 -1 -15 4 0 6 7 10 15 10 8 0 15 -2 15 -4z
m2290 0 c0 -3 -4 -8 -10 -11 -5 -3 -10 -1 -10 4 0 6 5 11 10 11 6 0 10 -2 10
-4z m-2345 -26 c-27 -12 -35 -12 -35 0 0 6 12 10 28 9 24 0 25 -1 7 -9z
m-4130 -29 c3 -5 1 -12 -5 -16 -5 -3 -10 1 -10 9 0 18 6 21 15 7z m6405 -50
c0 -5 -7 -11 -14 -14 -10 -4 -13 -1 -9 9 6 15 23 19 23 5z m-6625 -41 c3 -5 1
-10 -4 -10 -6 0 -11 5 -11 10 0 6 2 10 4 10 3 0 8 -4 11 -10z m5570 -132 c55
-10 146 -33 202 -50 94 -28 103 -30 118 -14 9 9 20 16 25 16 16 0 104 -66 119
-89 15 -24 15 -24 -9 -17 -14 4 -41 11 -60 15 -19 4 -50 15 -68 25 -18 9 -51
21 -75 26 -23 5 -80 20 -127 34 -47 14 -130 35 -185 46 -114 25 -145 38 -124
50 7 5 28 2 48 -7 20 -9 81 -24 136 -35z m139 -166 c-6 -4 -13 -17 -17 -30 -4
-18 -1 -22 11 -20 9 1 30 -1 45 -5 21 -6 37 -2 61 13 19 11 41 20 50 20 25 0
-61 -107 -130 -162 -33 -25 -88 -72 -124 -103 -54 -47 -257 -188 -351 -244
-13 -8 -69 -42 -124 -76 -103 -63 -520 -275 -540 -275 -6 0 -82 -27 -168 -59
-87 -33 -210 -74 -275 -91 -64 -18 -144 -40 -177 -50 -84 -26 -115 -30 -115
-15 0 14 40 75 70 108 12 12 35 44 52 70 19 30 44 54 67 64 28 12 32 17 18 20
-23 6 -21 11 51 141 47 85 62 104 85 109 15 3 30 10 33 14 3 5 10 7 15 4 5 -4
9 -1 9 5 0 6 4 9 9 5 5 -3 13 0 16 6 4 5 14 8 22 5 8 -3 12 -2 9 3 -9 14 26
23 38 10 8 -9 7 -10 -6 -6 -10 4 -18 2 -18 -4 0 -6 8 -9 19 -6 10 2 27 0 37
-5 15 -7 14 -5 -3 10 -26 23 -29 32 -10 32 6 0 44 15 82 34 50 24 74 31 83 23
9 -7 11 -6 6 7 -4 12 0 16 15 16 12 0 39 9 61 20 31 16 38 17 34 5 -4 -8 -1
-15 5 -15 6 0 11 -10 11 -22 1 -20 2 -21 11 -6 7 12 6 24 -1 37 -7 14 -7 22 2
27 6 4 8 3 5 -3 -4 -6 3 -21 14 -34 20 -23 21 -23 34 -6 7 10 16 14 19 9 3 -6
-1 -12 -9 -16 -8 -3 -15 -10 -15 -16 0 -6 5 -8 10 -5 6 3 10 1 10 -4 0 -17
-27 -13 -34 4 -8 22 -28 18 -21 -4 4 -14 -1 -21 -24 -29 -16 -6 -32 -8 -35 -5
-3 4 -6 2 -6 -4 0 -15 -48 -34 -55 -22 -4 5 -11 7 -16 3 -5 -3 -7 -10 -3 -15
3 -5 2 -9 -3 -8 -31 5 -43 -3 -43 -29 0 -15 -5 -33 -12 -40 -9 -9 -9 -12 0
-12 7 0 12 5 12 11 0 5 5 7 10 4 8 -5 7 -12 -2 -22 -7 -9 -13 -19 -13 -22 0
-3 -3 -5 -7 -4 -5 2 -8 -1 -8 -6 0 -5 -13 -14 -30 -20 -16 -5 -30 -15 -30 -20
0 -10 37 0 64 17 6 4 13 7 16 8 3 0 22 8 42 17 21 10 44 17 53 17 8 0 15 4 15
9 0 5 7 12 16 15 8 3 12 2 9 -4 -4 -6 5 -5 19 1 14 7 24 15 22 18 -2 3 8 7 22
8 29 1 284 132 302 154 3 4 16 10 30 14 32 10 355 223 441 291 36 28 90 68
120 87 30 20 65 45 79 56 16 13 28 17 35 10 6 -6 6 -12 -1 -17z m-3135 2 c7 5
9 1 5 -8 -3 -9 -11 -13 -16 -10 -6 4 -8 -2 -3 -17 7 -23 7 -23 -8 -4 -9 11
-12 21 -7 23 5 2 6 11 3 20 -4 13 -3 14 5 3 5 -7 15 -11 21 -7z m-2484 -33
c-3 -22 -24 -26 -22 -3 0 10 6 19 13 19 6 0 11 -7 9 -16z m2512 -7 c-3 -3 -12
-4 -19 -1 -8 3 -5 6 6 6 11 1 17 -2 13 -5z m-1217 -114 c-12 -22 -5 -44 11
-35 5 4 9 1 9 -6 0 -7 7 -4 16 7 15 19 15 19 5 -1 -7 -15 -18 -20 -43 -20 -35
1 -92 27 -104 46 -5 8 -3 9 7 3 8 -5 16 -9 19 -10 3 0 18 -6 34 -13 16 -6 31
-9 34 -6 3 2 -6 9 -19 14 -23 9 -23 10 -3 10 12 1 24 8 28 16 3 8 8 15 11 15
3 0 1 -9 -5 -20z m-284 -18 c-2 -4 3 -16 11 -27 13 -16 15 -17 10 -2 -4 11 -1
17 9 17 10 0 14 -6 11 -15 -4 -8 -1 -17 5 -21 6 -4 8 -3 5 3 -9 15 17 35 37
27 9 -3 13 -10 10 -15 -3 -5 -1 -9 5 -9 6 0 8 -6 5 -14 -3 -8 4 -16 18 -20 23
-6 23 -6 3 -22 -20 -16 -20 -16 3 -11 19 4 21 3 11 -9 -6 -7 -15 -12 -19 -9
-5 3 -11 2 -14 -3 -2 -4 4 -9 15 -9 10 -1 19 3 19 9 0 5 7 7 16 4 9 -4 22 -2
29 4 9 8 15 8 20 0 3 -6 11 -7 17 -4 6 4 8 2 4 -4 -3 -6 -15 -9 -26 -7 -11 2
-20 -1 -20 -7 0 -5 -7 -7 -16 -4 -9 3 -12 2 -9 -5 4 -5 12 -8 18 -6 7 2 25 -5
41 -16 16 -12 37 -22 45 -24 82 -15 121 -18 121 -11 0 5 9 4 19 -2 11 -5 36
-10 55 -10 29 0 36 -4 36 -20 0 -15 -7 -20 -27 -20 -30 0 -21 -15 12 -22 11
-2 19 -10 17 -16 -1 -8 11 -12 33 -12 43 0 48 -24 8 -37 -33 -11 -73 -6 -73 9
0 5 -7 7 -16 4 -9 -4 -23 -1 -31 5 -18 16 -22 10 -16 -24 5 -26 8 -28 49 -24
25 2 41 0 37 -6 -7 -12 16 -27 34 -20 9 4 10 9 4 17 -7 8 -5 12 8 12 20 0 27
-42 10 -62 -16 -19 -29 -17 -29 4 0 12 -12 5 -42 -26 -31 -33 -43 -40 -49 -30
-5 7 -9 8 -9 3 0 -14 -157 -20 -173 -7 -36 30 -115 39 -320 36 -164 -1 -207 1
-203 11 3 9 -7 12 -37 9 -23 -1 -42 -3 -42 -4 0 -1 -11 -3 -24 -6 -28 -5 -96
18 -161 55 -62 35 -204 132 -208 143 -2 4 -7 6 -12 3 -5 -3 -11 4 -15 15 -3
11 -12 20 -20 20 -18 0 -29 28 -30 76 0 27 4 41 13 41 7 0 10 -7 7 -15 -4 -12
-3 -13 10 -2 18 15 19 5 6 -52 -7 -30 -6 -38 5 -38 7 0 11 6 9 13 -4 8 5 12
22 13 16 0 46 4 67 9 28 5 37 5 32 -4 -5 -7 -1 -9 10 -4 13 5 15 3 9 -7 -5 -9
-4 -11 4 -6 9 6 9 11 1 21 -8 10 -8 15 1 21 7 4 9 3 6 -3 -13 -20 24 -22 43
-3 19 19 24 18 21 -5 -1 -5 7 0 18 13 11 12 22 18 25 13 3 -5 15 -7 26 -4 17
5 18 8 8 22 -10 13 -9 12 8 -1 23 -20 44 -23 44 -8 0 6 10 10 21 10 16 0 19 3
11 13 -10 12 16 16 135 20 22 1 39 5 36 10 -2 4 0 7 6 7 5 0 13 -4 16 -10 3
-5 11 -10 17 -10 7 0 6 6 -2 15 -7 8 -9 15 -5 15 5 0 0 10 -11 23 -19 22 -19
22 2 5 25 -22 38 -23 31 -4 -8 21 58 11 94 -15 23 -16 33 -19 42 -10 9 9 7 11
-8 5 -11 -4 -17 -4 -13 1 10 11 58 15 58 5 0 -5 -6 -10 -12 -13 -7 -3 -3 -4 9
-4 17 1 20 4 12 19 -5 10 -16 18 -24 18 -8 0 -15 5 -15 11 0 5 4 8 9 4 5 -3
12 -1 16 5 3 5 8 10 11 10 3 0 3 -3 0 -8z m-791 -63 c-11 -18 -50 2 -66 34
-12 22 -12 22 10 3 11 -11 24 -16 28 -13 3 4 2 7 -4 7 -6 0 -14 8 -18 17 -4
12 5 7 24 -11 17 -16 28 -32 26 -37z m1568 2 c3 -14 -6 -23 -43 -39 -26 -11
-54 -27 -61 -34 -30 -28 -53 -43 -45 -29 7 10 4 10 -15 -1 -13 -8 -30 -14 -36
-13 -7 2 -17 3 -23 4 -19 2 -10 19 13 25 12 3 24 5 26 5 2 0 7 3 10 8 9 14
103 64 109 58 3 -3 -1 -5 -9 -5 -12 0 -12 -2 1 -9 18 -12 30 -5 30 19 0 16 11
27 31 29 4 1 9 -7 12 -18z m51 -53 c9 -15 15 -47 14 -88 0 -36 1 -104 2 -153
2 -84 -9 -125 -31 -111 -5 3 -6 -3 -2 -12 5 -14 3 -15 -13 -6 -12 7 -25 7 -37
0 -17 -8 -17 -7 -7 12 6 12 9 26 7 33 -2 7 0 20 5 30 6 12 5 17 -6 17 -9 0
-13 -9 -11 -25 3 -30 -8 -38 -46 -37 -22 0 -29 -4 -29 -19 0 -33 -37 -24 -42
10 -4 25 -1 29 15 25 27 -5 57 13 56 34 -1 15 -2 15 -6 -1 -4 -17 -6 -17 -17
-2 -7 10 -18 14 -30 9 -14 -5 -15 -9 -4 -16 10 -8 10 -9 -2 -6 -16 5 -29 45
-22 65 2 7 8 10 13 7 6 -3 28 -3 50 1 29 5 38 10 30 18 -8 8 -7 15 4 27 13 14
12 16 -8 17 -17 2 -19 0 -7 -7 8 -5 10 -10 4 -10 -6 0 -14 3 -18 8 -10 9 -123
33 -157 32 -16 0 -26 5 -26 15 0 8 5 11 10 8 12 -7 115 -10 115 -3 -1 18 4 21
19 9 14 -12 16 -12 9 1 -4 8 1 5 10 -8 16 -21 17 -21 31 -5 13 16 13 16 3 -4
-9 -19 -8 -23 5 -23 8 0 14 4 13 9 -2 5 2 9 7 10 6 0 9 -17 7 -40 -1 -26 4
-48 15 -64 32 -43 43 -31 44 48 2 142 -2 182 -17 193 -21 16 -17 24 11 24 14
0 31 -9 39 -22z m-537 -2 c4 -4 4 -6 -2 -5 -5 2 -20 -5 -32 -15 -18 -16 -20
-23 -11 -40 10 -20 9 -20 -8 -4 -17 17 -17 18 4 41 12 13 19 26 16 29 -3 4 1
5 10 4 8 -1 19 -6 23 -10z m46 -6 c4 0 5 5 1 12 -4 7 -3 8 5 4 6 -4 9 -11 6
-16 -3 -5 11 -17 32 -27 21 -9 41 -19 45 -21 4 -2 5 6 3 18 -2 11 0 18 6 15 5
-4 6 -11 3 -17 -5 -7 -1 -9 9 -5 10 3 17 2 17 -3 0 -6 -4 -10 -10 -10 -5 0
-10 -4 -10 -10 0 -17 28 -11 33 8 3 11 5 7 6 -9 1 -26 -1 -27 -41 -23 -24 3
-57 5 -75 6 -18 1 -29 6 -26 11 4 6 -4 7 -21 3 -18 -4 -26 -2 -26 6 0 9 -4 8
-11 -2 -8 -11 -9 -9 -3 10 6 23 6 24 -11 10 -11 -9 -16 -10 -11 -3 4 7 16 18
26 23 16 9 19 8 13 -7 -5 -17 -4 -16 13 1 14 13 15 20 7 23 -7 3 -13 10 -13
16 0 8 4 7 12 -1 7 -7 16 -12 21 -12z m52 10 c3 -6 -1 -7 -9 -4 -18 7 -21 14
-7 14 6 0 13 -4 16 -10z m-1131 -48 c3 -5 -1 -9 -9 -9 -8 0 -12 4 -9 9 3 4 7
8 9 8 2 0 6 -4 9 -8z m1416 -47 c0 -1 -12 -2 -26 -2 -17 0 -22 2 -13 7 10 7
39 3 39 -5z m2991 -2 c13 -16 12 -17 -3 -4 -17 13 -22 21 -14 21 2 0 10 -8 17
-17z m-2209 -62 c23 -22 40 -42 37 -45 -10 -11 -79 15 -89 34 -12 23 -13 50
-1 50 5 0 29 -18 53 -39z m2225 33 c-3 -3 -12 -4 -19 -1 -8 3 -5 6 6 6 11 1
17 -2 13 -5z m3 -28 c0 -2 -7 -7 -16 -10 -8 -3 -12 -2 -9 4 6 10 25 14 25 6z
m-2927 -61 c-3 -9 -8 -14 -10 -11 -3 3 -2 9 2 15 9 16 15 13 8 -4z m785 -115
c15 0 62 -48 62 -63 0 -9 9 -32 21 -51 12 -20 18 -36 13 -36 -4 0 0 -8 8 -17
8 -10 30 -44 48 -75 19 -32 37 -58 40 -58 4 0 22 -33 40 -72 19 -40 36 -75 39
-78 3 -3 22 -39 42 -80 43 -89 139 -250 139 -234 0 7 25 -12 55 -41 57 -53 72
-88 35 -78 -10 3 -22 13 -25 22 -7 19 -65 89 -65 77 0 -13 71 -129 86 -141 8
-5 21 -37 29 -70 9 -33 28 -86 42 -118 14 -31 24 -60 21 -63 -8 -7 -72 92
-104 161 -15 33 -45 87 -66 121 -21 34 -52 91 -69 129 -17 37 -42 86 -57 109
-14 22 -78 142 -142 266 -65 124 -140 260 -168 304 -54 81 -57 91 -44 123 6
15 8 13 10 -9 2 -16 6 -28 10 -28z m1406 13 c-8 -12 -7 -25 4 -45 13 -27 10
-34 -79 -196 -51 -92 -123 -216 -159 -277 -37 -60 -113 -198 -168 -305 -99
-191 -126 -236 -246 -416 l-58 -88 -24 39 c-13 22 -20 42 -16 45 4 3 8 11 10
19 3 14 14 386 14 456 0 22 -1 132 -2 245 -1 113 -6 217 -11 231 -8 20 -6 36
8 68 16 36 21 41 48 38 16 -2 42 -9 57 -16 23 -12 30 -11 58 9 25 18 34 20 40
10 4 -7 12 -10 18 -6 6 3 12 1 14 -5 2 -5 11 -7 21 -3 17 6 17 7 0 20 -16 12
-14 13 15 8 28 -6 31 -4 26 11 -6 14 -4 16 10 8 20 -11 121 20 176 53 19 12
65 38 103 59 37 20 67 42 67 48 0 5 3 8 6 5 3 -4 17 0 32 8 32 16 53 3 36 -23z
m-1284 -406 c0 -5 -4 -5 -10 -2 -5 3 -10 14 -10 23 0 15 2 15 10 2 5 -8 10
-19 10 -23z m4509 -910 c-2 -1 -13 -9 -24 -17 -19 -14 -19 -14 -6 3 7 9 18 17
24 17 6 0 8 -1 6 -3z m-344 -157 c-3 -5 -11 -10 -16 -10 -6 0 -7 5 -4 10 3 6
11 10 16 10 6 0 7 -4 4 -10z m-6940 -44 c11 -3 40 -8 65 -11 25 -4 79 -13 120
-21 41 -8 76 -14 78 -14 2 0 1 -4 -2 -9 -3 -5 -32 -2 -63 5 -32 8 -76 16 -98
19 -50 6 -145 31 -154 41 -3 3 3 4 14 1 11 -3 29 -8 40 -11z m6623 -26 c-15
-4 -51 -10 -80 -13 l-53 -6 50 14 c28 7 64 13 80 13 l30 0 -27 -8z m-435 -57
c-7 -2 -19 -2 -25 0 -7 3 -2 5 12 5 14 0 19 -2 13 -5z m-5370 -10 c-18 -2 -48
-2 -65 0 -18 2 -4 4 32 4 36 0 50 -2 33 -4z"/>
<path d="M1837 8906 c-4 -10 -1 -13 9 -9 15 6 19 23 5 23 -5 0 -11 -7 -14 -14z"/>
<path d="M6789 8540 c-16 -10 29 -24 58 -18 14 3 10 6 -13 15 -17 6 -37 7 -45
3z"/>
<path d="M6778 8484 c-4 -3 -111 -7 -237 -8 -127 -2 -233 -5 -237 -9 -3 -3
-11 -4 -18 -1 -7 3 -23 0 -37 -6 -22 -10 -22 -10 -1 -6 12 2 22 1 22 -2 0 -4
110 -8 243 -9 134 0 260 -6 280 -11 35 -10 37 -9 43 15 6 22 8 23 16 9 8 -14
35 -16 226 -15 119 1 206 4 192 6 -14 3 -31 10 -39 16 -10 8 -74 12 -195 12
-100 0 -197 4 -216 8 -19 5 -38 5 -42 1z"/>
<path d="M8206 8348 c-10 -39 -7 -113 6 -126 9 -9 9 -12 -1 -12 -9 0 -11 -12
-6 -47 3 -26 8 -49 11 -52 2 -2 22 1 44 8 l40 12 -1 80 c-1 43 -5 82 -10 85
-5 3 -6 11 -2 17 4 7 0 7 -10 -1 -15 -13 -15 -16 1 -40 12 -19 13 -24 3 -17
-11 6 -13 4 -7 -10 6 -16 4 -16 -10 -4 -9 7 -12 15 -6 17 6 2 8 10 5 18 -3 7
-10 11 -15 8 -9 -6 -6 12 9 52 2 7 0 15 -5 18 -5 3 -10 0 -9 -7 1 -31 -4 -47
-14 -47 -6 0 -9 14 -6 35 5 39 -7 48 -17 13z"/>
<path d="M6783 8334 c-7 -20 -1 -24 25 -17 28 7 28 19 1 26 -12 3 -22 0 -26
-9z"/>
<path d="M7711 8294 c-1 -6 6 -17 14 -24 12 -10 15 -9 15 4 0 10 -4 15 -9 12
-5 -4 -12 0 -14 6 -4 8 -6 9 -6 2z"/>
<path d="M8009 8179 c0 -24 -2 -60 -4 -79 -1 -19 1 -42 6 -50 11 -19 12 -10 9
90 -2 83 -9 109 -11 39z"/>
<path d="M7376 8202 c-3 -5 1 -9 9 -9 8 0 12 4 9 9 -3 4 -7 8 -9 8 -2 0 -6 -4
-9 -8z"/>
<path d="M7197 8149 c7 -7 15 -10 18 -7 3 3 -2 9 -12 12 -14 6 -15 5 -6 -5z"/>
<path d="M8215 8079 c-4 -6 -5 -12 -2 -15 2 -3 7 2 10 11 7 17 1 20 -8 4z"/>
<path d="M6945 8020 c-3 -5 -1 -10 4 -10 6 0 11 5 11 10 0 6 -2 10 -4 10 -3 0
-8 -4 -11 -10z"/>
<path d="M7970 7635 c-7 -9 -11 -17 -9 -20 3 -2 10 5 17 15 14 24 10 26 -8 5z"/>
<path d="M8012 7410 c0 -14 2 -19 5 -12 2 6 2 18 0 25 -3 6 -5 1 -5 -13z"/>
<path d="M3555 8000 c3 -5 8 -10 11 -10 2 0 4 5 4 10 0 6 -5 10 -11 10 -5 0
-7 -4 -4 -10z"/>
<path d="M1483 5869 c-18 -12 -33 -23 -33 -25 0 -7 58 25 65 36 9 14 5 13 -32
-11z"/>
<path d="M8542 7440 c-18 -11 -42 -20 -53 -20 -11 0 -29 -5 -40 -11 -20 -10
-20 -11 -2 -25 17 -14 17 -15 -4 -9 -13 3 -31 2 -40 -4 -10 -6 -14 -11 -9 -11
4 0 0 -12 -10 -27 -12 -20 -13 -24 -3 -16 10 8 19 9 27 3 7 -6 10 -7 7 -4 -2
4 0 16 6 28 10 20 10 20 -5 2 -9 -11 -16 -15 -16 -10 0 12 21 34 33 34 5 0 6
-7 3 -16 -5 -14 -4 -15 8 -5 10 8 16 9 21 1 3 -5 4 -11 1 -11 -3 -1 -10 -3
-16 -4 -5 -1 -14 -3 -18 -4 -8 -1 -15 -51 -7 -51 7 0 96 98 128 140 16 22 27
40 25 40 -1 0 -18 -9 -36 -20z"/>
<path d="M8220 7415 c0 -5 5 -17 10 -25 5 -8 10 -10 10 -5 0 6 -5 17 -10 25
-5 8 -10 11 -10 5z"/>
<path d="M8250 7405 c12 -15 53 -12 58 4 3 8 -7 11 -32 9 -25 -1 -32 -5 -26
-13z"/>
<path d="M8376 7411 c-3 -5 2 -15 12 -22 16 -13 16 -13 2 5 -14 18 -13 18 10
12 19 -6 21 -5 10 3 -18 13 -27 14 -34 2z"/>
<path d="M8323 7135 c-3 -9 -3 -18 -1 -21 3 -3 8 4 11 16 6 23 -1 27 -10 5z"/>
<path d="M8548 7083 c-24 -21 -60 -51 -80 -66 -26 -21 -35 -35 -32 -50 2 -12
2 -16 -2 -9 -3 6 -10 10 -15 7 -5 -4 -7 0 -4 7 3 7 7 27 9 45 2 24 0 30 -11
26 -8 -3 -11 -8 -9 -11 3 -3 1 -11 -5 -18 -6 -8 -9 -21 -5 -29 3 -9 2 -13 -4
-10 -9 5 -12 -8 -9 -31 0 -4 -5 -10 -12 -14 -7 -5 -9 -16 -5 -25 6 -17 8 -17
27 1 12 11 24 19 28 19 3 0 5 5 3 12 -2 7 3 12 10 11 7 -2 14 7 16 19 2 12 11
24 20 27 18 6 132 110 132 120 0 11 -9 6 -52 -31z"/>
<path d="M8172 6724 c10 -10 20 -16 22 -13 3 3 -5 11 -17 18 -21 13 -21 12 -5
-5z"/>
<path d="M8294 6689 c-3 -6 -2 -15 3 -20 5 -5 9 -1 9 11 0 23 -2 24 -12 9z"/>
<path d="M4846 7185 c-26 -7 -52 -17 -59 -24 -6 -6 -19 -11 -29 -11 -10 0 -18
-4 -18 -10 0 -5 -6 -10 -14 -10 -7 0 -35 -17 -62 -39 -48 -37 -151 -102 -264
-164 -50 -28 -153 -89 -272 -162 -47 -29 -68 -59 -68 -95 0 -11 -5 -20 -11
-20 -5 0 -8 -4 -5 -9 5 -8 -24 -41 -100 -112 -45 -42 -68 -70 -72 -90 -2 -8
-8 -15 -13 -17 -14 -5 -11 -22 4 -22 13 0 47 34 47 47 0 11 92 93 104 93 6 0
20 13 30 28 10 16 32 34 48 40 19 7 27 15 23 22 -6 9 -2 9 14 0 18 -9 20 -14
10 -26 -9 -11 -9 -14 2 -14 8 0 5 -6 -7 -15 -10 -8 -15 -15 -9 -15 5 0 -11
-21 -35 -46 -28 -29 -35 -41 -19 -30 36 23 63 56 85 104 10 23 21 42 24 42 3
0 39 32 80 70 41 39 79 70 85 70 7 0 20 9 30 20 10 11 22 20 27 20 5 0 24 11
41 24 18 13 59 36 92 51 87 40 98 45 121 49 23 5 104 57 123 80 15 18 141 42
141 27 0 -4 16 -8 36 -9 20 -2 45 -7 55 -13 11 -5 19 -8 19 -5 0 3 16 -2 35
-10 36 -15 105 -19 105 -6 0 16 185 19 205 2 8 -7 15 -10 15 -7 0 3 21 -1 48
-9 49 -16 149 -42 191 -50 14 -3 29 -8 35 -12 6 -3 17 -7 26 -7 8 -1 37 -10
63 -20 42 -16 50 -16 58 -4 8 11 9 10 7 -6 -2 -15 3 -21 25 -23 15 -2 27 -7
27 -11 0 -9 51 -35 63 -33 4 1 7 -3 7 -9 0 -6 7 -9 15 -5 8 3 15 2 15 -3 0 -5
17 -17 38 -26 20 -10 68 -33 107 -51 38 -19 76 -34 82 -34 7 0 41 -29 75 -63
162 -164 258 -267 302 -322 26 -33 61 -77 79 -98 47 -58 76 -109 77 -135 0
-13 4 -21 9 -18 4 3 15 -18 24 -47 9 -28 34 -110 56 -182 23 -71 43 -143 46
-160 3 -16 8 -38 11 -47 3 -9 6 -25 8 -35 2 -10 13 -55 24 -101 11 -46 19 -92
17 -103 -2 -11 0 -17 5 -14 5 3 8 -27 8 -69 -1 -49 -6 -73 -13 -69 -5 3 -4 0
3 -8 15 -16 16 -56 1 -61 -7 -2 -11 -24 -11 -53 1 -28 2 -88 3 -135 2 -109 -9
-192 -24 -183 -7 4 -6 -1 2 -10 9 -12 10 -21 4 -29 -11 -13 -12 -19 -16 -75
-1 -18 -5 -33 -9 -33 -5 0 -8 -9 -8 -19 0 -11 -4 -30 -9 -43 -5 -13 -10 -27
-11 -33 -2 -5 -10 -16 -19 -23 -9 -8 -10 -11 -3 -7 6 3 12 1 12 -4 0 -6 -6
-11 -14 -11 -10 0 -13 -7 -10 -22 5 -26 5 -26 -63 -168 -77 -160 -87 -184 -89
-201 -6 -76 -69 -173 -149 -231 -69 -50 -145 -120 -139 -129 7 -12 53 0 86 22
14 11 30 19 35 19 10 0 113 96 113 105 0 4 7 13 15 21 8 8 19 34 25 57 10 41
49 137 60 147 3 3 18 33 34 68 16 34 33 62 37 62 4 0 10 8 14 18 11 33 43 62
60 56 9 -4 14 -13 11 -20 -8 -20 12 -67 24 -59 5 3 10 1 10 -4 0 -6 -4 -11
-10 -11 -5 0 -10 -9 -10 -21 0 -11 -5 -17 -10 -14 -6 4 -13 -7 -16 -24 -4 -17
-10 -31 -15 -31 -5 0 -9 -11 -9 -25 0 -14 -4 -25 -10 -25 -5 0 -10 -9 -10 -20
0 -11 -9 -35 -20 -55 -24 -43 -29 -81 -6 -50 8 11 12 23 10 27 -3 5 0 8 6 8 6
0 9 4 6 8 -3 5 4 18 14 30 11 12 20 28 20 36 0 8 5 16 11 18 9 3 54 114 64
160 2 9 10 27 18 40 14 22 63 167 88 258 21 81 37 263 33 383 -4 111 -2 122
22 173 17 35 24 64 20 82 -3 15 -6 52 -8 82 -1 30 -10 84 -21 120 -10 36 -38
139 -63 230 -24 91 -54 196 -65 233 -12 38 -22 99 -23 135 -3 86 -35 155 -111
242 -32 36 -67 81 -80 100 -12 19 -30 41 -39 49 -9 7 -16 18 -16 23 0 6 -13
23 -30 38 -16 15 -30 33 -30 39 0 6 -6 10 -12 9 -7 -2 -12 3 -10 10 1 6 -5 12
-14 12 -8 0 -13 4 -10 9 3 4 -7 19 -22 33 -27 25 -72 75 -72 81 0 2 -44 48
-98 104 -96 98 -100 101 -153 107 -78 10 -133 25 -229 63 -47 19 -116 46 -155
60 -38 14 -74 29 -80 33 -5 4 -50 17 -100 29 -49 12 -106 26 -125 32 -44 14
-130 70 -130 86 0 6 -5 15 -11 19 -16 10 -68 7 -82 -4 -21 -17 -130 -44 -179
-45 -25 0 -53 5 -61 11 -8 7 -51 25 -95 41 -73 25 -84 27 -126 16z"/>
<path d="M3981 6406 c-7 -8 -10 -19 -7 -24 3 -6 -2 -9 -11 -8 -10 0 -18 -5
-18 -12 0 -7 -7 -17 -15 -22 -8 -5 -11 -10 -7 -10 5 0 0 -13 -9 -29 -10 -17
-21 -28 -26 -25 -4 3 -8 0 -8 -5 0 -19 15 -12 48 22 18 18 32 41 32 51 0 9 3
15 8 13 9 -5 37 24 37 40 0 20 -12 24 -24 9z"/>
<path d="M3820 6393 c-8 -4 -21 -13 -30 -21 -8 -9 -53 -33 -100 -54 -128 -58
-209 -100 -213 -113 -3 -6 0 -35 5 -65 5 -30 9 -80 9 -111 -1 -50 2 -59 24
-73 29 -19 40 -20 40 -3 0 6 6 23 13 35 13 23 14 23 27 5 15 -22 12 -102 -5
-133 -11 -21 -13 -114 -3 -213 4 -51 9 -67 19 -63 8 3 13 2 13 -2 -4 -22 3
-39 15 -39 14 0 16 14 3 34 -8 13 -20 91 -21 145 -1 20 -4 34 -8 31 -5 -2 -8
0 -8 6 0 5 4 11 10 13 9 3 14 35 24 149 2 14 6 31 9 36 4 6 4 18 1 27 -3 9 -2
16 3 16 5 0 9 17 10 38 2 55 6 65 27 81 13 10 15 15 6 21 -9 5 8 18 46 36 32
15 62 32 66 38 4 6 8 8 8 3 0 -9 60 44 60 54 0 9 -41 -1 -59 -15 -12 -9 -12
-8 -3 11 9 16 9 22 -1 26 -9 4 -9 7 1 18 6 7 12 21 12 32 0 10 4 16 9 13 4 -3
16 3 25 13 15 17 16 19 1 25 -9 3 -17 6 -18 5 -1 0 -9 -3 -17 -6z"/>
<path d="M5201 6336 c10 -10 67 -13 80 -5 9 6 -3 9 -35 9 -27 0 -47 -2 -45 -4z"/>
<path d="M5046 6318 c3 -4 15 -8 26 -8 12 0 18 3 14 7 -10 10 -46 11 -40 1z"/>
<path d="M5000 6313 c-8 -3 -28 -11 -45 -18 -16 -7 -48 -21 -70 -31 -44 -19
-50 -21 -66 -23 -6 0 -9 -6 -7 -13 5 -14 38 -20 38 -7 0 5 3 8 8 7 14 -3 102
35 102 44 0 5 10 8 23 8 13 0 29 6 36 13 11 10 13 10 7 0 -4 -7 -2 -13 4 -13
14 0 9 32 -5 36 -5 1 -17 0 -25 -3z"/>
<path d="M4767 6212 c-15 -9 -27 -20 -27 -24 0 -5 -7 -8 -15 -8 -9 0 -18 -7
-21 -15 -4 -8 -11 -15 -18 -15 -6 0 -24 -12 -41 -26 -16 -14 -45 -37 -62 -51
-18 -14 -30 -30 -26 -36 5 -8 8 -7 11 1 2 7 8 10 13 6 5 -3 9 -1 9 5 0 6 7 8
15 5 8 -4 15 -1 15 5 0 6 6 11 13 11 7 0 30 16 50 35 20 19 42 35 48 35 5 0 7
4 4 10 -3 5 6 12 20 16 14 3 25 10 25 15 0 5 7 9 15 9 16 0 21 25 7 34 -4 2
-20 -3 -35 -12z"/>
<path d="M3190 6029 c0 -5 5 -7 10 -4 6 3 10 8 10 11 0 2 -4 4 -10 4 -5 0 -10
-5 -10 -11z"/>
<path d="M4682 5958 c-19 -19 -14 -29 8 -16 20 13 27 28 12 28 -4 0 -13 -5
-20 -12z"/>
<path d="M4623 5920 c-31 -18 -36 -35 -23 -70 2 -3 2 -9 1 -14 -1 -5 5 -4 13
4 17 14 22 35 6 25 -5 -3 -10 1 -10 10 0 9 4 14 9 11 10 -7 34 19 37 40 3 17
5 18 -33 -6z"/>
<path d="M4460 5915 c-7 -9 -19 -14 -27 -11 -8 3 -11 1 -8 -5 4 -5 1 -20 -7
-32 -8 -12 -13 -32 -12 -44 1 -13 -2 -23 -6 -23 -3 0 -7 -23 -8 -50 0 -28 -8
-78 -17 -113 -20 -76 -28 -154 -18 -170 8 -14 12 -29 15 -72 1 -16 5 -34 8
-40 4 -5 13 -26 19 -47 7 -20 19 -39 29 -43 14 -5 14 -7 2 -15 -10 -6 -11 -10
-3 -10 7 0 17 -10 24 -21 9 -17 8 -20 -2 -14 -6 5 2 -13 20 -38 18 -26 36 -47
41 -47 6 0 10 -7 10 -15 0 -8 5 -15 10 -15 6 0 10 -6 10 -13 0 -29 94 -60 187
-61 35 -1 63 2 63 7 0 4 7 7 15 7 8 0 15 5 15 10 0 6 7 10 15 10 8 0 15 4 15
10 0 5 8 6 17 3 12 -5 15 -2 10 10 -3 9 -2 17 3 17 14 0 2 43 -15 56 -8 6 -12
13 -9 16 14 15 -49 16 -87 2 -52 -18 -120 -26 -135 -16 -22 15 -52 96 -43 115
11 20 1 42 -35 76 -14 14 -26 30 -26 38 0 7 -4 13 -8 13 -11 0 -10 -7 -18 202
-4 97 -3 185 1 195 13 27 23 119 14 127 -16 14 -48 14 -59 1z"/>
<path d="M6047 5910 c3 -11 7 -20 9 -20 2 0 4 9 4 20 0 11 -4 20 -9 20 -5 0
-7 -9 -4 -20z"/>
<path d="M4592 5720 c7 -10 14 -18 15 -16 6 6 -9 36 -18 36 -5 0 -4 -9 3 -20z"/>
<path d="M4576 5683 c-6 -14 -5 -15 5 -6 7 7 10 15 7 18 -3 3 -9 -2 -12 -12z"/>
<path d="M4573 5586 c-1 -39 1 -65 4 -58 7 18 36 15 29 -3 -3 -8 0 -14 7 -12
7 1 12 -7 13 -18 0 -25 14 -58 28 -67 7 -6 6 -11 -4 -18 -8 -5 -16 -18 -16
-29 -1 -11 2 -18 6 -16 9 6 30 -40 30 -65 0 -11 4 -20 10 -20 5 0 7 6 4 14 -3
8 -1 17 5 21 7 3 8 0 5 -9 -3 -9 -2 -16 3 -16 5 0 10 11 11 25 1 18 -2 23 -13
19 -11 -5 -13 -2 -9 10 4 10 -1 25 -10 35 -13 14 -14 21 -5 27 8 5 10 3 4 -6
-5 -9 -4 -11 3 -6 9 5 8 16 -2 40 -13 32 -13 35 15 65 16 18 34 29 39 26 6 -4
7 -11 4 -17 -4 -7 -2 -8 5 -4 6 4 14 1 17 -8 3 -8 14 -18 25 -21 10 -4 19 -15
19 -25 0 -21 29 -101 40 -110 3 -3 16 -18 28 -34 12 -16 22 -22 22 -15 0 27
-26 100 -33 93 -7 -7 -12 20 -7 41 1 5 2 18 3 27 1 13 4 14 14 6 10 -8 12 -7
8 3 -3 9 5 18 25 26 17 6 28 7 25 2 -4 -5 1 -6 9 -3 9 3 16 14 16 23 0 11 3
12 8 4 6 -9 13 -7 26 8 11 14 25 19 38 16 11 -3 31 -2 43 3 16 6 25 5 28 -3 3
-9 9 -9 25 0 15 9 23 9 28 2 3 -6 17 -8 30 -5 15 4 26 1 31 -9 5 -9 18 -17 29
-19 11 -2 37 -14 58 -26 21 -11 40 -19 43 -17 7 8 57 -47 60 -65 2 -10 20 -46
41 -80 21 -35 40 -67 42 -73 7 -20 37 -65 41 -61 7 7 12 -56 12 -174 0 -125
-3 -151 -18 -162 -6 -5 -5 -11 3 -16 10 -7 10 -11 -1 -21 -8 -6 -13 -24 -11
-41 2 -17 -1 -30 -7 -30 -6 0 -9 -9 -6 -20 3 -11 1 -23 -5 -26 -5 -3 -7 -12
-4 -20 4 -9 -2 -14 -15 -14 -15 0 -19 -5 -15 -15 3 -8 1 -15 -4 -15 -6 0 -10
-7 -10 -16 0 -8 -3 -13 -7 -11 -10 6 -34 -19 -26 -27 3 -3 -5 -10 -18 -15 -33
-14 -59 -36 -59 -49 0 -6 -6 -9 -13 -6 -7 2 -22 -4 -32 -16 -10 -11 -25 -20
-34 -20 -14 0 -14 -2 -1 -10 17 -11 18 -11 -35 -16 -62 -6 -64 -7 -60 -14 2
-4 -9 -7 -25 -8 -16 0 -36 -4 -45 -9 -23 -14 173 -15 213 -2 42 14 142 72 197
113 55 43 105 100 136 155 50 89 46 276 -10 461 -52 174 -125 338 -167 377
-43 40 -149 83 -214 85 -33 2 -60 7 -60 12 0 4 -71 6 -157 4 -137 -4 -164 -7
-206 -27 -46 -21 -74 -21 -61 1 4 7 2 8 -4 4 -7 -4 -12 -1 -12 8 0 9 -5 16
-11 16 -5 0 -7 -4 -4 -10 3 -5 2 -10 -3 -10 -6 0 -13 7 -16 16 -5 12 -10 14
-20 5 -7 -6 -15 -9 -17 -7 -3 3 -16 7 -31 10 -20 3 -28 0 -33 -17 -4 -12 -6
-26 -5 -32 1 -5 -4 -4 -12 3 -11 11 -10 14 1 21 11 7 11 9 0 14 -10 4 -10 6
-1 6 16 1 16 38 -1 38 -9 0 -13 -20 -14 -71z m124 27 c-4 -3 -1 -13 6 -21 9
-13 9 -14 0 -8 -8 4 -13 2 -13 -5 0 -10 -3 -10 -12 -1 -8 8 -8 15 2 27 7 8 15
15 18 15 3 0 2 -3 -1 -7z m-71 -48 c-3 -8 -2 -15 3 -15 4 0 8 -7 8 -15 0 -11
-4 -12 -14 -4 -16 14 -17 49 -2 49 6 0 9 -7 5 -15z"/>
<path d="M3620 5476 c0 -8 6 -16 13 -19 9 -3 12 -19 10 -47 -2 -31 0 -39 9
-34 10 6 10 4 2 -7 -13 -17 -18 -119 -6 -119 5 0 27 -26 50 -57 40 -58 87
-113 96 -113 2 0 2 9 -1 20 -3 11 -9 17 -14 14 -5 -3 -9 2 -9 11 0 19 -21 57
-37 68 -7 4 -13 15 -13 23 0 9 -9 28 -19 43 -10 14 -19 43 -19 63 0 20 -3 41
-7 47 -3 6 -1 11 5 11 8 0 8 6 0 21 -6 11 -13 30 -16 42 -2 12 -8 23 -14 25
-6 2 -8 8 -4 13 3 5 -2 9 -10 9 -9 0 -16 -6 -16 -14z"/>
<path d="M3142 5388 c2 -6 10 -14 16 -16 7 -2 10 2 6 12 -7 18 -28 22 -22 4z"/>
<path d="M3150 5346 c0 -9 5 -16 10 -16 6 0 10 4 10 9 0 6 -4 13 -10 16 -5 3
-10 -1 -10 -9z"/>
<path d="M4720 5290 c0 -5 5 -10 10 -10 6 0 10 5 10 10 0 6 -4 10 -10 10 -5 0
-10 -4 -10 -10z"/>
<path d="M3155 5270 c-3 -5 -2 -10 4 -10 5 0 13 5 16 10 3 6 2 10 -4 10 -5 0
-13 -4 -16 -10z"/>
<path d="M4690 5264 c0 -8 5 -12 10 -9 6 3 10 10 10 16 0 5 -4 9 -10 9 -5 0
-10 -7 -10 -16z"/>
<path d="M4745 5240 c3 -5 8 -10 11 -10 2 0 4 5 4 10 0 6 -5 10 -11 10 -5 0
-7 -4 -4 -10z"/>
<path d="M4695 5229 c-3 -3 4 -9 15 -12 12 -3 20 0 20 7 0 13 -28 18 -35 5z"/>
<path d="M5756 5035 c-9 -26 -7 -32 5 -12 6 10 9 21 6 23 -2 3 -7 -2 -11 -11z"/>
<path d="M3175 5030 c3 -5 10 -10 16 -10 5 0 9 5 9 10 0 6 -7 10 -16 10 -8 0
-12 -4 -9 -10z"/>
<path d="M5757 4984 c-21 -20 -24 -30 -17 -44 6 -10 10 -36 11 -57 0 -21 3
-31 6 -23 3 8 11 18 17 22 8 5 7 8 -1 8 -7 0 -13 5 -13 11 0 5 5 7 12 3 6 -4
8 -3 4 4 -3 5 -3 12 1 15 5 2 2 2 -4 1 -7 -2 -13 3 -13 11 0 8 -5 15 -11 15
-5 0 -7 5 -4 11 5 6 12 4 21 -8 13 -16 14 -15 8 11 -5 21 -4 27 5 22 6 -4 11
-1 11 8 0 21 -3 20 -33 -10z"/>
<path d="M5992 4980 c0 -14 2 -19 5 -12 2 6 2 18 0 25 -3 6 -5 1 -5 -13z"/>
<path d="M3870 4981 c0 -23 100 -157 143 -190 15 -12 17 -12 11 3 -3 9 -10 16
-16 16 -5 0 -6 5 -3 10 3 6 -1 13 -9 16 -9 3 -16 12 -16 19 0 7 -7 19 -17 26
-9 8 -34 36 -55 62 -21 27 -38 44 -38 38z"/>
<path d="M5802 4960 c0 -14 2 -19 5 -12 2 6 2 18 0 25 -3 6 -5 1 -5 -13z"/>
<path d="M5950 4916 c0 -2 8 -10 18 -17 15 -13 16 -12 3 4 -13 16 -21 21 -21
13z"/>
<path d="M3741 4884 c0 -11 3 -14 6 -6 3 7 2 16 -1 19 -3 4 -6 -2 -5 -13z"/>
<path d="M5928 4875 c-10 -13 -18 -30 -18 -37 0 -9 3 -9 10 2 9 13 10 13 10 0
1 -8 8 -2 16 14 20 36 5 52 -18 21z"/>
<path d="M3790 4831 c0 -7 7 -19 15 -27 19 -20 19 -5 0 20 -9 11 -15 14 -15 7z"/>
<path d="M5840 4783 c-8 -13 -13 -14 -16 -5 -3 6 -10 12 -15 12 -6 0 -7 -4 -4
-10 3 -5 1 -10 -4 -10 -6 0 -10 -6 -8 -12 1 -7 -4 -12 -10 -10 -7 1 -13 -6
-13 -15 0 -11 -3 -14 -8 -7 -16 24 -36 20 -52 -10 -9 -17 -21 -40 -27 -51 -6
-11 -17 -33 -24 -50 -8 -16 -33 -48 -56 -72 -39 -38 -55 -67 -35 -61 8 3 12
-5 12 -23 0 -6 -8 -1 -19 12 -17 21 -20 22 -35 7 -23 -23 -20 -29 12 -22 21 4
24 3 12 -5 -10 -7 -11 -11 -2 -11 19 0 -57 -69 -84 -76 -13 -3 -22 -10 -19
-14 2 -4 -7 -5 -21 -2 -17 3 -24 0 -22 -9 2 -8 -4 -13 -14 -13 -11 1 -15 -4
-10 -15 5 -13 3 -14 -9 -4 -9 7 -20 8 -28 3 -8 -4 -20 -6 -28 -3 -17 6 -17
-13 0 -21 6 -3 3 -4 -9 -1 -11 3 -29 -2 -40 -10 -11 -8 -41 -14 -72 -15 -33 0
-51 -4 -47 -10 3 -5 25 -10 48 -10 29 0 37 -3 28 -9 -8 -5 -20 -7 -28 -4 -7 3
-13 -1 -13 -10 0 -8 -6 -18 -12 -20 -7 -3 -3 -6 10 -6 12 -1 22 4 22 10 0 6 8
8 19 4 20 -6 241 101 241 117 0 4 6 8 14 8 7 0 25 11 40 25 14 13 26 21 26 18
0 -3 18 13 41 35 22 23 45 42 49 42 5 0 6 7 3 17 -4 11 -3 14 5 9 7 -4 12 -1
12 7 0 7 11 20 25 27 13 7 22 16 20 21 -3 4 6 16 20 27 13 11 21 22 18 26 -3
3 -1 6 6 6 7 0 21 10 32 23 14 16 17 17 13 5 -9 -25 0 -22 38 12 18 17 29 30
24 30 -5 0 -1 12 8 26 10 14 16 35 14 47 -1 12 1 28 5 34 6 9 3 11 -8 7 -11
-5 -14 -2 -9 10 8 21 -2 20 -16 -1z m-540 -523 c0 -5 -9 -10 -20 -10 -11 0
-20 5 -20 10 0 6 9 10 20 10 11 0 20 -4 20 -10z"/>
<path d="M5723 4780 c2 -8 12 -16 23 -17 13 -2 15 -1 4 4 -8 3 -19 11 -23 17
-6 7 -7 6 -4 -4z"/>
<path d="M3240 4770 c0 -5 5 -10 10 -10 6 0 10 5 10 10 0 6 -4 10 -10 10 -5 0
-10 -4 -10 -10z"/>
<path d="M3271 4714 c0 -11 3 -14 6 -6 3 7 2 16 -1 19 -3 4 -6 -2 -5 -13z"/>
<path d="M4080 4710 c0 -5 5 -10 10 -10 6 0 10 5 10 10 0 6 -4 10 -10 10 -5 0
-10 -4 -10 -10z"/>
<path d="M4104 4692 c-9 -5 -8 -11 2 -20 12 -11 14 -9 14 8 0 22 0 23 -16 12z"/>
<path d="M4284 4475 c21 -19 42 -33 47 -29 5 3 -8 19 -31 35 -54 39 -61 37
-16 -6z"/>
<path d="M3440 4453 c0 -6 8 -17 18 -24 16 -13 16 -13 2 6 -8 11 -16 22 -17
24 -2 2 -3 0 -3 -6z"/>
<path d="M5491 4434 c0 -11 3 -14 6 -6 3 7 2 16 -1 19 -3 4 -6 -2 -5 -13z"/>
<path d="M4340 4433 c0 -5 16 -19 34 -33 19 -14 32 -28 29 -32 -5 -9 10 -11
46 -8 16 1 21 -2 16 -11 -5 -7 -4 -10 3 -5 6 3 30 -2 54 -13 29 -14 69 -21
125 -23 45 -2 80 -1 78 2 -2 3 30 4 71 2 62 -3 73 -1 68 11 -3 8 0 18 7 23 8
4 10 3 5 -4 -5 -8 -2 -10 8 -6 21 8 -2 33 -26 27 -19 -6 -33 -33 -16 -33 6 0
9 -3 5 -6 -3 -3 -14 -1 -24 5 -10 6 -12 11 -5 11 6 0 12 4 12 9 0 5 -8 8 -17
6 -10 -2 -22 -4 -26 -4 -5 -1 -5 -7 -1 -13 5 -9 2 -9 -9 1 -15 12 -21 9 -19
-10 1 -4 -16 0 -36 7 -45 16 -62 17 -62 4 0 -5 12 -11 28 -11 26 -2 26 -2 3
-6 -14 -3 -30 1 -35 9 -6 7 -20 14 -31 16 -56 7 -127 22 -137 29 -7 4 -19 8
-28 9 -30 3 -45 9 -77 32 -34 23 -43 27 -43 15z"/>
<path d="M5068 4383 c7 -3 16 -2 19 1 4 3 -2 6 -13 5 -11 0 -14 -3 -6 -6z"/>
<path d="M4920 4353 c0 -12 3 -14 8 -7 4 7 16 14 27 17 15 4 14 5 -7 6 -21 1
-28 -4 -28 -16z"/>
<path d="M6836 4303 c-6 -14 -5 -15 5 -6 7 7 10 15 7 18 -3 3 -9 -2 -12 -12z"/>
<path d="M4230 4298 c0 -4 4 -8 8 -8 5 0 18 -9 30 -20 12 -12 22 -17 22 -13 0
4 5 1 10 -7 6 -9 10 -10 10 -3 0 19 -43 60 -62 60 -10 0 -18 -4 -18 -9z"/>
<path d="M5108 4273 c6 -2 18 -2 25 0 6 3 1 5 -13 5 -14 0 -19 -2 -12 -5z"/>
<path d="M6843 4274 c8 -8 -22 -64 -43 -81 -13 -11 -13 -14 0 -22 12 -8 18 -2
30 29 8 21 18 42 23 46 11 11 8 34 -5 34 -6 0 -8 -3 -5 -6z"/>
<path d="M4958 4203 c7 -3 16 -2 19 1 4 3 -2 6 -13 5 -11 0 -14 -3 -6 -6z"/>
<path d="M3657 4173 c-4 -3 -7 -11 -7 -17 0 -6 5 -5 12 2 6 6 9 14 7 17 -3 3
-9 2 -12 -2z"/>
<path d="M4515 4150 c4 -6 10 -8 15 -5 4 3 11 -2 14 -10 5 -13 22 -15 103 -11
54 3 104 5 111 6 6 0 12 3 12 8 0 4 -50 7 -110 7 -61 0 -110 3 -110 7 0 5 -9
8 -21 8 -11 0 -17 -5 -14 -10z"/>
<path d="M4788 4153 c7 -3 16 -2 19 1 4 3 -2 6 -13 5 -11 0 -14 -3 -6 -6z"/>
<path d="M6784 4141 c0 -15 3 -17 13 -9 7 6 10 14 7 19 -9 15 -20 10 -20 -10z"/>
<path d="M4580 4005 c-7 -8 -16 -13 -20 -10 -4 3 -13 -2 -19 -9 -8 -10 -9 -16
-1 -21 5 -3 10 -1 10 4 0 6 7 11 15 11 8 0 19 9 25 20 13 24 8 26 -10 5z"/>
<path d="M8540 6236 c0 -2 6 -9 13 -15 10 -8 14 -7 14 4 0 8 -6 15 -14 15 -7
0 -13 -2 -13 -4z"/>
<path d="M8391 6326 c-9 -11 -9 -16 1 -22 7 -4 10 -4 6 1 -4 4 -3 14 3 22 6 7
9 13 6 13 -2 0 -10 -6 -16 -14z"/>
<path d="M8125 6110 c3 -5 11 -10 16 -10 6 0 7 5 4 10 -3 6 -11 10 -16 10 -6
0 -7 -4 -4 -10z"/>
<path d="M8660 6085 c0 -8 4 -15 10 -15 5 0 7 7 4 15 -4 8 -8 15 -10 15 -2 0
-4 -7 -4 -15z"/>
<path d="M2290 4121 c0 -6 4 -13 10 -16 6 -3 7 1 4 9 -7 18 -14 21 -14 7z"/>
<path d="M4734 838 c3 -15 26 -23 26 -8 0 6 -4 9 -9 6 -5 -4 -12 -1 -14 4 -3
6 -4 5 -3 -2z"/>
<path d="M8161 3874 c0 -11 3 -14 6 -6 3 7 2 16 -1 19 -3 4 -6 -2 -5 -13z"/>
<path d="M7918 3303 c-9 -10 -21 -28 -27 -40 -9 -18 -9 -22 1 -18 7 3 19 19
26 35 8 17 18 27 24 24 7 -4 8 -2 4 4 -9 15 -10 15 -28 -5z"/>
<path d="M1779 2698 c15 -21 31 -23 31 -6 0 6 -3 8 -7 5 -3 -4 -13 -1 -22 6
-14 11 -14 10 -2 -5z"/>
<path d="M2016 3143 c-6 -14 -5 -15 5 -6 7 7 10 15 7 18 -3 3 -9 -2 -12 -12z"/>
<path d="M3865 2579 c-4 -6 -5 -13 -2 -16 7 -7 27 6 27 18 0 12 -17 12 -25 -2z"/>
<path d="M3590 2491 c0 -12 6 -21 15 -21 8 0 15 -4 15 -8 0 -4 9 -8 20 -8 18
0 18 1 2 16 -47 42 -52 44 -52 21z"/>
<path d="M3706 2455 c-3 -8 -3 -21 0 -27 5 -14 175 -111 181 -104 9 9 -22 45
-51 59 -17 8 -51 31 -74 51 -51 42 -48 41 -56 21z"/>
<path d="M6181 1756 c-9 -11 -9 -16 1 -22 7 -4 10 -4 6 1 -4 4 -3 14 3 22 6 7
9 13 6 13 -2 0 -10 -6 -16 -14z"/>
<path d="M6275 1760 c3 -5 10 -10 16 -10 5 0 9 5 9 10 0 6 -7 10 -16 10 -8 0
-12 -4 -9 -10z"/>
<path d="M6240 1740 c0 -5 5 -10 10 -10 6 0 10 5 10 10 0 6 -4 10 -10 10 -5 0
-10 -4 -10 -10z"/>
<path d="M2716 2078 c3 -4 9 -8 15 -8 5 0 9 4 9 8 0 5 -7 9 -15 9 -8 0 -12 -4
-9 -9z"/>
<path d="M2946 2073 c-11 -11 -7 -20 9 -20 8 0 15 4 15 8 0 11 -16 20 -24 12z"/>
<path d="M3164 1788 c-4 -6 -3 -8 3 -5 6 4 22 -2 34 -14 18 -16 20 -19 6 -15
-11 3 -16 2 -12 -4 3 -6 21 -10 38 -9 18 0 25 3 17 6 -22 8 -50 35 -45 42 2 4
-5 7 -15 8 -11 1 -23 -3 -26 -9z"/>
<path d="M3226 1632 c-3 -5 1 -9 9 -9 8 0 12 4 9 9 -3 4 -7 8 -9 8 -2 0 -6 -4
-9 -8z"/>
<path d="M3540 1851 c0 -5 7 -12 16 -15 14 -5 15 -4 4 9 -14 17 -20 19 -20 6z"/>
<path d="M3585 1749 c-4 -6 -5 -12 -2 -15 2 -3 7 2 10 11 7 17 1 20 -8 4z"/>
<path d="M3191 1948 c-10 -18 -11 -20 0 -10 7 6 24 12 39 12 20 0 22 2 10 10
-23 15 -34 12 -49 -12z"/>
<path d="M779 9703 l-24 -28 28 24 c25 23 32 31 24 31 -2 0 -14 -12 -28 -27z"/>
<path d="M709 9643 l-24 -28 28 24 c25 23 32 31 24 31 -2 0 -14 -12 -28 -27z"/>
<path d="M629 9573 l-24 -28 28 24 c25 23 32 31 24 31 -2 0 -14 -12 -28 -27z"/>
<path d="M789 9326 c-1 -3 -2 -10 -3 -15 0 -5 -4 -13 -8 -17 -16 -15 -7 -20
23 -16 26 4 29 6 15 14 -9 5 -14 13 -11 18 3 5 1 11 -5 15 -5 3 -11 4 -11 1z"/>
<path d="M2015 9010 c-4 -6 -11 -8 -16 -5 -5 4 -9 1 -9 -5 0 -6 -4 -9 -8 -6
-5 3 -21 -4 -38 -15 -21 -13 -24 -19 -11 -19 9 0 17 -5 17 -11 0 -5 -4 -8 -9
-4 -5 3 -12 1 -16 -5 -3 -5 1 -10 10 -10 8 0 18 7 22 16 3 8 12 13 19 10 9 -4
14 2 14 15 0 11 5 17 10 14 6 -3 13 1 16 9 3 9 11 13 17 9 6 -3 7 -1 3 5 -9
15 -13 15 -21 2z m-35 -30 c0 -5 -8 -10 -17 -10 -15 0 -16 2 -3 10 19 12 20
12 20 0z"/>
<path d="M4500 8110 c-12 -8 -10 -10 8 -10 13 0 20 4 17 10 -7 12 -6 12 -25 0z"/>
<path d="M7858 8052 c-18 -7 -148 -159 -148 -172 0 -5 -23 -30 -52 -57 -73
-68 -82 -77 -193 -203 -115 -130 -185 -219 -185 -238 0 -7 5 -10 10 -7 6 3 10
-4 10 -17 0 -13 8 -32 16 -43 15 -19 15 -19 9 6 -7 29 9 49 19 23 4 -10 2 -13
-6 -8 -7 4 -8 3 -4 -4 10 -16 43 2 51 28 4 11 10 18 15 15 4 -3 13 2 20 10 7
8 19 15 27 15 8 0 11 5 8 10 -3 6 -2 10 4 10 6 0 18 16 27 36 9 19 30 48 45
64 16 16 29 33 29 39 0 5 5 13 12 17 8 5 9 2 5 -9 -3 -9 -2 -19 3 -22 6 -4 11
10 11 32 1 37 2 37 8 8 5 -24 8 -26 13 -12 12 30 28 19 28 -20 1 -34 2 -36 14
-20 7 9 15 17 18 17 6 0 -18 -95 -27 -109 -3 -5 1 -12 7 -14 10 -4 10 -6 1 -6
-8 -1 -11 -12 -8 -33 4 -27 3 -29 -3 -8 -8 25 -8 25 -14 3 -4 -14 -1 -24 9
-27 8 -4 13 -13 9 -21 -3 -8 -2 -15 3 -15 5 0 18 33 29 73 11 39 29 95 40 123
12 29 18 55 15 58 -4 3 -2 6 4 6 5 0 15 26 22 58 14 66 52 182 87 264 13 32
26 68 28 80 3 13 5 23 6 23 1 0 4 12 6 28 3 28 0 30 -28 19z m-188 -389 c-11
-17 -11 -17 -6 0 3 10 6 24 7 30 0 9 2 9 5 0 3 -7 0 -20 -6 -30z"/>
<path d="M4140 7546 c0 -9 5 -16 10 -16 6 0 10 4 10 9 0 6 -4 13 -10 16 -5 3
-10 -1 -10 -9z"/>
<path d="M7630 7500 c-9 -6 -10 -10 -3 -10 6 0 15 5 18 10 8 12 4 12 -15 0z"/>
<path d="M7625 7470 c-3 -6 1 -7 9 -4 18 7 21 14 7 14 -6 0 -13 -4 -16 -10z"/>
<path d="M7504 7448 c-10 -16 -12 -78 -2 -72 5 3 7 18 6 32 -1 15 1 33 6 40 4
7 5 12 2 12 -3 0 -8 -5 -12 -12z"/>
<path d="M7610 7419 c0 -5 5 -7 10 -4 6 3 10 8 10 11 0 2 -4 4 -10 4 -5 0 -10
-5 -10 -11z"/>
<path d="M7594 7389 c-3 -6 -2 -15 3 -20 5 -5 9 -1 10 11 2 22 -2 25 -13 9z"/>
<path d="M7217 7325 c-27 -32 -33 -45 -22 -45 9 0 18 7 21 15 4 9 13 14 22 13
11 -2 16 7 19 30 2 17 3 32 1 32 -2 0 -21 -20 -41 -45z"/>
<path d="M7405 7350 c-3 -5 -1 -10 4 -10 6 0 11 5 11 10 0 6 -2 10 -4 10 -3 0
-8 -4 -11 -10z"/>
<path d="M7585 7339 c-4 -6 -5 -12 -2 -15 2 -3 7 2 10 11 7 17 1 20 -8 4z"/>
<path d="M7623 7249 c-13 -37 -16 -56 -8 -49 13 11 41 98 33 105 -2 3 -14 -22
-25 -56z"/>
<path d="M1686 5505 c-3 -8 -1 -15 4 -15 6 0 10 7 10 15 0 8 -2 15 -4 15 -2 0
-6 -7 -10 -15z"/>
<path d="M9673 4425 c-31 -155 -51 -237 -65 -260 -13 -23 -78 -231 -78 -251 0
-8 -5 -22 -10 -32 -6 -9 -26 -70 -45 -136 -33 -109 -113 -319 -220 -576 -50
-119 -204 -425 -245 -485 -15 -22 -50 -83 -80 -135 -68 -124 -118 -192 -230
-320 -50 -58 -123 -147 -163 -198 -39 -52 -78 -97 -86 -100 -25 -9 -74 -66
-101 -117 -17 -32 -45 -60 -90 -91 -80 -56 -151 -114 -267 -222 -124 -115
-307 -248 -425 -309 -29 -15 -92 -51 -139 -80 -48 -28 -117 -66 -155 -83 -38
-17 -89 -42 -114 -56 -116 -65 -260 -128 -420 -183 -207 -71 -409 -134 -502
-157 -37 -9 -69 -23 -72 -31 -8 -21 401 -13 494 10 36 9 110 23 165 32 221 36
326 59 459 97 76 22 148 41 159 44 47 9 138 38 231 76 56 22 120 46 143 54 23
8 84 34 135 58 59 27 114 45 150 49 63 7 147 26 163 37 6 3 22 7 37 8 14 1 62
13 105 27 43 14 95 27 115 28 20 1 34 5 31 11 -4 5 1 7 11 3 23 -9 91 11 139
40 21 13 43 21 49 17 7 -5 8 -3 3 6 -6 10 -4 12 9 7 10 -4 26 -7 37 -7 12 0
19 -7 19 -19 0 -31 18 -34 53 -9 18 13 45 29 60 36 26 11 27 11 17 -8 -6 -11
-15 -20 -21 -20 -6 0 -6 -7 1 -20 6 -11 16 -17 22 -14 7 4 8 3 4 -5 -4 -6 -12
-8 -18 -5 -7 4 -8 2 -4 -5 4 -6 -2 -24 -14 -39 -19 -23 -20 -27 -6 -30 9 -2
14 -8 11 -13 -12 -19 14 -8 56 25 41 30 79 49 105 50 12 1 96 77 167 151 87
90 193 270 251 423 53 142 107 354 121 472 3 30 15 111 27 180 22 135 32 381
37 920 1 162 4 311 6 330 8 79 13 665 7 795 l-7 140 -22 -110z m-799 -2197
c-5 -9 -2 -8 9 1 10 8 20 11 24 7 3 -3 1 -6 -6 -6 -9 0 -9 -5 0 -22 10 -18 9
-20 -4 -15 -9 3 -18 1 -21 -6 -3 -9 -7 -9 -14 1 -7 10 -12 9 -23 -4 -8 -10 -9
-15 -2 -11 6 4 15 2 19 -4 4 -7 3 -9 -3 -6 -6 4 -18 -2 -28 -13 -44 -48 -35
-9 13 58 22 30 52 47 36 20z m-76 -48 c-7 -10 -14 -17 -17 -15 -4 4 18 35 25
35 2 0 -1 -9 -8 -20z m-44 -55 c-4 -8 -11 -15 -18 -15 -6 0 -5 -4 3 -9 9 -6
23 -4 38 6 24 16 24 16 17 -13 -12 -50 -81 -116 -85 -83 -1 5 -3 14 -4 19 -1
6 -3 13 -4 16 0 4 -8 1 -16 -6 -9 -7 -19 -10 -22 -6 -4 4 -3 10 3 14 5 4 24
26 43 50 32 42 56 56 45 27z m-4 -198 c-30 -29 -45 -41 -35 -28 11 13 19 26
19 30 -1 3 2 5 6 4 5 -2 19 10 32 26 13 16 25 27 28 24 2 -2 -20 -27 -50 -56z
m-70 -8 c0 -4 -7 -14 -15 -21 -9 -7 -22 -19 -30 -25 -37 -34 -40 2 -2 44 18
20 47 22 47 2z m101 -33 c-12 -13 -24 -31 -25 -40 -3 -19 -66 -87 -76 -81 -4
2 -18 -7 -30 -20 -13 -14 -28 -25 -34 -25 -6 0 32 43 84 95 52 52 97 95 99 95
2 0 -6 -11 -18 -24z m-100 -19 c-6 -8 -8 -17 -4 -20 3 -4 1 -7 -5 -7 -15 0
-15 13 0 28 16 16 23 15 9 -1z m-71 -120 c0 -2 -10 -12 -22 -23 l-23 -19 19
23 c18 21 26 27 26 19z m20 -41 c0 -2 -8 -10 -17 -17 -16 -13 -17 -12 -4 4 13
16 21 21 21 13z m215 -505 c3 -5 2 -12 -3 -15 -5 -3 -9 1 -9 9 0 17 3 19 12 6z"/>
<path d="M8634 1908 l-19 -23 23 19 c12 11 22 21 22 23 0 8 -8 2 -26 -19z"/>
<path d="M8709 1803 l-34 -38 38 34 c34 33 42 41 34 41 -2 0 -19 -17 -38 -37z"/>
<path d="M7788 4183 c-43 -46 -55 -61 -61 -76 -3 -9 -2 -17 3 -17 5 0 7 -6 4
-14 -3 -8 -11 -13 -18 -10 -13 5 -50 -61 -62 -111 -3 -16 -15 -39 -25 -50 -10
-11 -18 -23 -18 -28 -1 -8 -40 -87 -71 -142 -11 -20 -20 -44 -20 -54 0 -10
-11 -26 -25 -35 -20 -13 -115 -131 -148 -183 -4 -7 -2 -21 5 -32 17 -28 -3
-51 -27 -31 -14 12 -24 5 -76 -46 -33 -32 -66 -71 -74 -86 -15 -30 -13 -32 13
-19 9 5 64 24 122 41 250 77 343 117 395 170 44 46 224 343 197 326 -6 -3 -30
-40 -54 -81 -24 -41 -47 -75 -51 -75 -5 0 -5 5 -1 12 4 7 3 8 -5 4 -6 -4 -9
-12 -6 -17 4 -5 0 -9 -7 -9 -8 0 -20 -10 -28 -22 -8 -12 -23 -30 -32 -40 -10
-10 -18 -21 -19 -25 -2 -20 -9 -14 -10 8 -2 31 -2 29 6 62 10 36 -9 35 -28 -2
-9 -19 -11 -33 -5 -39 6 -6 0 -9 -16 -9 -14 0 -26 4 -26 9 0 5 5 6 11 2 7 -4
9 0 5 14 -4 11 -3 23 3 26 5 3 8 25 7 48 -1 23 4 55 11 70 8 15 15 50 15 78 1
27 5 50 10 50 5 0 4 10 -3 21 -8 15 -8 19 0 15 15 -10 14 17 -1 33 -10 11 -10
14 0 18 6 3 12 11 12 19 0 8 7 14 16 14 13 0 14 3 4 15 -14 17 -3 58 15 52 13
-6 40 39 36 61 -3 20 46 65 61 56 10 -6 10 -5 2 7 -6 8 -13 20 -15 27 -3 10
-9 8 -21 -5z m-128 -282 c0 -5 -7 -11 -14 -14 -10 -4 -13 -1 -9 9 6 15 23 19
23 5z m0 -31 c0 -5 -5 -10 -11 -10 -5 0 -7 5 -4 10 3 6 8 10 11 10 2 0 4 -4 4
-10z m-65 -260 c-18 -35 -25 -38 -25 -9 0 11 5 17 10 14 6 -3 10 1 10 9 0 9 5
16 10 16 6 0 4 -13 -5 -30z m-20 -50 c3 -6 -1 -7 -9 -4 -18 7 -21 14 -7 14 6
0 13 -4 16 -10z m81 -32 c4 -6 2 -14 -4 -16 -7 -2 -10 -8 -7 -13 4 -5 -1 -6
-10 -3 -13 5 -13 9 -3 22 10 12 10 14 1 8 -7 -4 -13 -2 -13 3 0 15 27 14 36
-1z"/>
<path d="M7873 4016 c3 -7 -1 -25 -8 -40 -16 -30 -9 -35 11 -8 16 21 18 62 3
62 -6 0 -9 -6 -6 -14z"/>
<path d="M7845 3930 c-3 -6 1 -7 9 -4 18 7 21 14 7 14 -6 0 -13 -4 -16 -10z"/>
<path d="M7721 3834 c0 -11 3 -14 6 -6 3 7 2 16 -1 19 -3 4 -6 -2 -5 -13z"/>
<path d="M7777 3797 c-4 -10 -7 -28 -6 -40 0 -21 1 -21 10 2 5 14 8 32 7 40
-3 13 -5 13 -11 -2z"/>
<path d="M5970 2680 c-12 -8 -11 -10 8 -10 12 0 22 5 22 10 0 13 -11 13 -30 0z"/>
<path d="M8415 2680 c3 -5 8 -10 11 -10 2 0 4 5 4 10 0 6 -5 10 -11 10 -5 0
-7 -4 -4 -10z"/>
<path d="M5918 2663 c-16 -2 -28 -9 -28 -14 0 -14 24 -11 46 6 10 8 17 14 14
13 -3 0 -17 -3 -32 -5z"/>
<path d="M8435 2660 c-3 -5 1 -10 9 -10 9 0 16 5 16 10 0 6 -4 10 -9 10 -6 0
-13 -4 -16 -10z"/>
<path d="M5835 2641 c3 -5 -2 -12 -10 -14 -12 -4 -12 -5 1 -3 19 1 32 26 14
26 -6 0 -9 -4 -5 -9z"/>
<path d="M5878 2623 c-28 -7 -21 -21 7 -15 14 2 22 8 19 13 -3 5 -6 8 -7 8 -1
-1 -10 -3 -19 -6z"/>
<path d="M5675 2520 c-8 -13 5 -13 25 0 13 8 13 10 -2 10 -9 0 -20 -4 -23 -10z"/>
<path d="M8285 2499 c-4 -6 -5 -12 -2 -15 2 -3 7 2 10 11 7 17 1 20 -8 4z"/>
<path d="M10232 2065 c0 -16 2 -22 5 -12 2 9 2 23 0 30 -3 6 -5 -1 -5 -18z"/>
<path d="M10211 1884 c0 -11 3 -14 6 -6 3 7 2 16 -1 19 -3 4 -6 -2 -5 -13z"/>
<path d="M8073 1838 c-5 -7 -15 -27 -22 -45 -14 -33 -48 -62 -83 -68 -26 -5
-53 -34 -63 -66 -6 -21 -57 -77 -70 -79 -20 -2 -45 -19 -75 -50 -46 -48 -158
-130 -177 -130 -8 0 -11 -4 -8 -10 3 -5 0 -7 -8 -5 -7 3 -34 -13 -60 -35 -26
-23 -47 -39 -47 -35 0 4 -6 2 -13 -4 -8 -6 -16 -8 -20 -5 -3 3 -12 -8 -21 -24
-15 -29 -15 -30 6 -24 12 3 40 17 63 32 67 45 147 95 207 130 83 49 232 184
336 303 18 20 41 37 50 37 24 0 55 63 39 79 -14 14 -22 14 -34 -1z"/>
<path d="M10202 1805 c0 -16 2 -22 5 -12 2 9 2 23 0 30 -3 6 -5 -1 -5 -18z"/>
<path d="M10191 1754 c0 -11 3 -14 6 -6 3 7 2 16 -1 19 -3 4 -6 -2 -5 -13z"/>
<path d="M10181 1714 c0 -11 3 -14 6 -6 3 7 2 16 -1 19 -3 4 -6 -2 -5 -13z"/>
<path d="M10172 1670 c0 -14 2 -19 5 -12 2 6 2 18 0 25 -3 6 -5 1 -5 -13z"/>
<path d="M10066 1375 c-9 -26 -7 -32 5 -12 6 10 9 21 6 23 -2 3 -7 -2 -11 -11z"/>
<path d="M9065 1110 c-3 -5 -1 -10 4 -10 6 0 11 5 11 10 0 6 -2 10 -4 10 -3 0
-8 -4 -11 -10z"/>
</g>
</svg>
